<svg xmlns="http://www.w3.org/2000/svg" width="24" height="24" viewBox="0 0 24 24" fill="none">
  <path d="M4.88201 12.956L10.502 19.307C10.6897 19.5191 10.9203 19.689 11.1785 19.8054C11.4368 19.9217 11.7168 19.9819 12 19.9819C12.2833 19.9819 12.5633 19.9217 12.8215 19.8054C13.0798 19.689 13.3103 19.5191 13.498 19.307L19.118 12.956C20.791 11.065 21.66 8.687 20.403 6.42C18.951 3.8 16.29 3.264 13.977 5.024C13.3385 5.5196 12.7473 6.0733 12.211 6.678C12.1844 6.70756 12.1518 6.73119 12.1155 6.74737C12.0791 6.76355 12.0398 6.77191 12 6.77191C11.9602 6.77191 11.9209 6.76355 11.8845 6.74737C11.8482 6.73119 11.8156 6.70756 11.789 6.678C11.2527 6.0733 10.6615 5.5196 10.023 5.024C7.71001 3.264 5.04901 3.8 3.59701 6.42C2.34001 8.687 3.20901 11.065 4.88201 12.956Z" stroke="white" stroke-linecap="round" stroke-linejoin="round"/>
</svg>