<svg xmlns="http://www.w3.org/2000/svg" width="24" height="24" viewBox="0 0 24 24" fill="none">
  <path d="M5.60496 11.442C5.79296 13.134 5.88696 13.98 6.45596 14.49C7.02596 15 7.87696 15 9.57996 15H14.827C16 15 16.587 15 17.063 14.713C17.539 14.427 17.813 13.908 18.363 12.872L20.83 8.209C20.9513 7.97967 21.0114 7.72285 21.0042 7.46348C20.997 7.20411 20.9229 6.951 20.7891 6.72871C20.6553 6.50642 20.4662 6.32251 20.2404 6.19483C20.0145 6.06715 19.7594 6.00003 19.5 6H9.46896C7.38296 6 6.34096 6 5.74396 6.666C5.14796 7.332 5.26396 8.369 5.49396 10.442L5.60496 11.442Z" stroke="white" stroke-linecap="round" stroke-linejoin="round"/>
  <path d="M3 3H3.5C4.164 3 4.722 3.5 4.796 4.16L5.556 11M9 19.5C9 19.8978 8.84196 20.2794 8.56066 20.5607C8.27936 20.842 7.89782 21 7.5 21C7.10218 21 6.72064 20.842 6.43934 20.5607C6.15804 20.2794 6 19.8978 6 19.5C6 19.1022 6.15804 18.7206 6.43934 18.4393C6.72064 18.158 7.10218 18 7.5 18C7.89782 18 8.27936 18.158 8.56066 18.4393C8.84196 18.7206 9 19.1022 9 19.5ZM18 19.5C18 19.8978 17.842 20.2794 17.5607 20.5607C17.2794 20.842 16.8978 21 16.5 21C16.1022 21 15.7206 20.842 15.4393 20.5607C15.158 20.2794 15 19.8978 15 19.5C15 19.1022 15.158 18.7206 15.4393 18.4393C15.7206 18.158 16.1022 18 16.5 18C16.8978 18 17.2794 18.158 17.5607 18.4393C17.842 18.7206 18 19.1022 18 19.5Z" stroke="white" stroke-linecap="round" stroke-linejoin="round"/>
</svg>