<svg xmlns="http://www.w3.org/2000/svg" width="30" height="30" viewBox="0 0 30 30" fill="none">
  <path d="M25.8 6.22498H4.2C3.78228 6.22498 3.38168 6.39091 3.08631 6.68628C2.79094 6.98165 2.625 7.38226 2.625 7.79998V22.2C2.625 22.6177 2.79094 23.0183 3.08631 23.3137C3.38168 23.609 3.78228 23.775 4.2 23.775H25.8C26.2177 23.775 26.6183 23.609 26.9137 23.3137C27.2091 23.0183 27.375 22.6177 27.375 22.2V7.79998C27.375 7.38226 27.2091 6.98165 26.9137 6.68628C26.6183 6.39091 26.2177 6.22498 25.8 6.22498ZM4.2 7.57498H25.8C25.8597 7.57498 25.9169 7.59868 25.9591 7.64088C26.0013 7.68307 26.025 7.7403 26.025 7.79998V10.725H3.975V7.79998C3.975 7.7403 3.99871 7.68307 4.0409 7.64088C4.0831 7.59868 4.14033 7.57498 4.2 7.57498ZM25.8 22.425H4.2C4.14033 22.425 4.0831 22.4013 4.0409 22.3591C3.99871 22.3169 3.975 22.2596 3.975 22.2V12.075H26.025V22.2C26.025 22.2596 26.0013 22.3169 25.9591 22.3591C25.9169 22.4013 25.8597 22.425 25.8 22.425ZM23.775 19.5C23.775 19.679 23.7039 19.8507 23.5773 19.9773C23.4507 20.1039 23.279 20.175 23.1 20.175H19.5C19.321 20.175 19.1493 20.1039 19.0227 19.9773C18.8961 19.8507 18.825 19.679 18.825 19.5C18.825 19.321 18.8961 19.1493 19.0227 19.0227C19.1493 18.8961 19.321 18.825 19.5 18.825H23.1C23.279 18.825 23.4507 18.8961 23.5773 19.0227C23.7039 19.1493 23.775 19.321 23.775 19.5ZM16.575 19.5C16.575 19.679 16.5039 19.8507 16.3773 19.9773C16.2507 20.1039 16.079 20.175 15.9 20.175H14.1C13.921 20.175 13.7493 20.1039 13.6227 19.9773C13.4961 19.8507 13.425 19.679 13.425 19.5C13.425 19.321 13.4961 19.1493 13.6227 19.0227C13.7493 18.8961 13.921 18.825 14.1 18.825H15.9C16.079 18.825 16.2507 18.8961 16.3773 19.0227C16.5039 19.1493 16.575 19.321 16.575 19.5Z" fill="#CF215B"/>
</svg>