<svg xmlns="http://www.w3.org/2000/svg" width="160" height="56" viewBox="0 0 160 56" fill="none">
  <rect x="42.5" y="0.5" width="33" height="23" rx="3.5" fill="white" stroke="#D9D9D9"/>
  <path fill-rule="evenodd" clip-rule="evenodd" d="M59.179 16.7995C57.9949 17.7975 56.459 18.4 54.7807 18.4C51.0358 18.4 48 15.4003 48 11.7C48 7.99969 51.0358 5 54.7807 5C56.459 5 57.9949 5.6025 59.179 6.60054C60.363 5.6025 61.8989 5 63.5773 5C67.3221 5 70.358 7.99969 70.358 11.7C70.358 15.4003 67.3221 18.4 63.5773 18.4C61.8989 18.4 60.363 17.7975 59.179 16.7995Z" fill="#ED0006"/>
  <path fill-rule="evenodd" clip-rule="evenodd" d="M59.179 16.7995C60.6369 15.5706 61.5614 13.742 61.5614 11.7C61.5614 9.65805 60.6369 7.82944 59.179 6.60054C60.363 5.6025 61.8989 5 63.5772 5C67.3221 5 70.3579 7.99969 70.3579 11.7C70.3579 15.4003 67.3221 18.4 63.5772 18.4C61.8989 18.4 60.363 17.7975 59.179 16.7995Z" fill="#F9A000"/>
  <path fill-rule="evenodd" clip-rule="evenodd" d="M59.179 16.7995C60.6369 15.5706 61.5614 13.742 61.5614 11.7C61.5614 9.65808 60.6369 7.82949 59.179 6.60059C57.7211 7.82949 56.7966 9.65808 56.7966 11.7C56.7966 13.742 57.7211 15.5706 59.179 16.7995Z" fill="#FF5E00"/>
  <rect x="42.5" y="32.5" width="33" height="23" rx="3.5" fill="white" stroke="#D9D9D9"/>
  <path d="M49.8242 41.4956C50.1119 41.4013 50.4196 41.3501 50.7399 41.3501C52.1374 41.3501 53.3032 42.3239 53.5706 43.6176L55.5511 43.2215C55.0966 41.0228 53.1155 39.3677 50.7399 39.3677C50.196 39.3677 49.6724 39.4546 49.1837 39.6147L49.8242 41.4956Z" fill="#FECA2F"/>
  <path d="M47.4673 47.8676L48.6531 46.3365C48.1238 45.8011 47.7897 45.0195 47.7897 44.1483C47.7897 43.2777 48.1234 42.4961 48.6526 41.9611L47.4662 40.4302C46.5668 41.3398 46 42.6684 46 44.1483C46 45.6289 46.5676 46.958 47.4673 47.8676Z" fill="#1BA7DE"/>
  <path d="M53.5712 44.6802C53.3029 45.9737 52.1379 46.9463 50.7415 46.9463C50.4212 46.9463 50.1128 46.8949 49.8251 46.8003L49.1837 48.6822C49.6732 48.8431 50.1969 48.9301 50.7415 48.9301C53.115 48.9301 55.0948 47.2762 55.5511 45.0783L53.5712 44.6802Z" fill="#EC412A"/>
  <path fill-rule="evenodd" clip-rule="evenodd" d="M65.0795 40.4302V45.8714L66.0559 46.2628L65.594 47.336L64.6284 46.9479C64.4112 46.8569 64.2643 46.7181 64.1527 46.5615C64.0455 46.4012 63.966 46.1821 63.966 45.8864V40.4302H65.0795ZM57.6738 44.4743C57.6981 42.9183 59.0232 41.6762 60.6312 41.7C61.9959 41.7207 63.1267 42.6451 63.4237 43.8745L58.1453 46.0561C57.8387 45.6028 57.6644 45.0575 57.6738 44.4743ZM58.8816 44.6925C58.8743 44.6272 58.8692 44.5603 58.8711 44.4927C58.8863 43.5759 59.6664 42.8444 60.6138 42.8596C61.1295 42.8663 61.5873 43.0946 61.8969 43.448L58.8816 44.6925ZM61.7857 45.7026C61.4676 46.0019 61.0362 46.1842 60.5599 46.1776C60.2334 46.1724 59.9309 46.0778 59.6737 45.9204L59.036 46.9028C59.4727 47.1698 59.9876 47.3277 60.5427 47.336C61.3508 47.3476 62.0873 47.0407 62.6228 46.5339L61.7857 45.7026ZM69.1434 42.8595C68.9532 42.8595 68.7704 42.8892 68.5996 42.9447L68.2197 41.8437C68.5097 41.7501 68.8202 41.6992 69.1434 41.6992C70.5537 41.6992 71.7302 42.668 72 43.9548L70.8238 44.1867C70.6653 43.4293 69.9732 42.8595 69.1434 42.8595ZM67.2123 46.629L68.007 45.76C67.6521 45.4561 67.4286 45.0123 67.4286 44.5177C67.4286 44.0235 67.6521 43.5799 68.0067 43.2763L67.2114 42.4072C66.6085 42.9236 66.2286 43.6781 66.2286 44.5177C66.2286 45.3583 66.6088 46.1125 67.2123 46.629ZM69.1433 46.1761C69.9724 46.1761 70.6644 45.6068 70.8238 44.8506L71.9996 45.0834C71.7285 46.3689 70.5524 47.3363 69.1433 47.3363C68.8199 47.3363 68.5089 47.2853 68.2182 47.1912L68.599 46.0906C68.7701 46.1459 68.953 46.1761 69.1433 46.1761Z" fill="#151515"/>
  <rect x="84.5" y="32.5" width="33" height="23" rx="3.5" fill="white" stroke="#D9D9D9"/>
  <path d="M91.1697 39.5H91.3253V49.3252H91.1697V39.5Z" fill="#151515" stroke="#151515"/>
  <mask id="path-12-inside-1_46_651" fill="white">
    <path fill-rule="evenodd" clip-rule="evenodd" d="M92.1907 39H92.5475V49.8252H92.1907V39Z"/>
  </mask>
  <path fill-rule="evenodd" clip-rule="evenodd" d="M92.1907 39H92.5475V49.8252H92.1907V39Z" fill="#151515"/>
  <path d="M92.1907 39V38H91.1907V39H92.1907ZM92.5475 39H93.5475V38H92.5475V39ZM92.5475 49.8252V50.8252H93.5475V49.8252H92.5475ZM92.1907 49.8252H91.1907V50.8252H92.1907V49.8252ZM92.1907 40H92.5475V38H92.1907V40ZM91.5475 39V49.8252H93.5475V39H91.5475ZM92.5475 48.8252H92.1907V50.8252H92.5475V48.8252ZM93.1907 49.8252V39H91.1907V49.8252H93.1907Z" fill="#151515" mask="url(#path-12-inside-1_46_651)"/>
  <mask id="path-14-inside-2_46_651" fill="white">
    <path fill-rule="evenodd" clip-rule="evenodd" d="M92.8597 39H93.5013V49.8252H92.8597V39Z"/>
  </mask>
  <path fill-rule="evenodd" clip-rule="evenodd" d="M92.8597 39H93.5013V49.8252H92.8597V39Z" fill="#151515"/>
  <path d="M92.8597 39V38H91.8597V39H92.8597ZM93.5013 39H94.5013V38H93.5013V39ZM93.5013 49.8252V50.8252H94.5013V49.8252H93.5013ZM92.8597 49.8252H91.8597V50.8252H92.8597V49.8252ZM92.8597 40H93.5013V38H92.8597V40ZM92.5013 39V49.8252H94.5013V39H92.5013ZM93.5013 48.8252H92.8597V50.8252H93.5013V48.8252ZM93.8597 49.8252V39H91.8597V49.8252H93.8597Z" fill="#151515" mask="url(#path-14-inside-2_46_651)"/>
  <mask id="path-16-inside-3_46_651" fill="white">
    <path fill-rule="evenodd" clip-rule="evenodd" d="M94.1195 39H94.4785V49.8252H94.1195V39Z"/>
  </mask>
  <path fill-rule="evenodd" clip-rule="evenodd" d="M94.1195 39H94.4785V49.8252H94.1195V39Z" fill="#151515"/>
  <path d="M94.1195 39V38H93.1195V39H94.1195ZM94.4785 39H95.4785V38H94.4785V39ZM94.4785 49.8252V50.8252H95.4785V49.8252H94.4785ZM94.1195 49.8252H93.1195V50.8252H94.1195V49.8252ZM94.1195 40H94.4785V38H94.1195V40ZM93.4785 39V49.8252H95.4785V39H93.4785ZM94.4785 48.8252H94.1195V50.8252H94.4785V48.8252ZM95.1195 49.8252V39H93.1195V49.8252H95.1195Z" fill="#151515" mask="url(#path-16-inside-3_46_651)"/>
  <mask id="path-18-inside-4_46_651" fill="white">
    <path fill-rule="evenodd" clip-rule="evenodd" d="M94.6335 39H94.9097V49.8252H94.6335V39Z"/>
  </mask>
  <path fill-rule="evenodd" clip-rule="evenodd" d="M94.6335 39H94.9097V49.8252H94.6335V39Z" fill="#151515"/>
  <path d="M94.6335 39V38H93.6335V39H94.6335ZM94.9097 39H95.9097V38H94.9097V39ZM94.9097 49.8252V50.8252H95.9097V49.8252H94.9097ZM94.6335 49.8252H93.6335V50.8252H94.6335V49.8252ZM94.6335 40H94.9097V38H94.6335V40ZM93.9097 39V49.8252H95.9097V39H93.9097ZM94.9097 48.8252H94.6335V50.8252H94.9097V48.8252ZM95.6335 49.8252V39H93.6335V49.8252H95.6335Z" fill="#151515" mask="url(#path-18-inside-4_46_651)"/>
  <mask id="path-20-inside-5_46_651" fill="white">
    <path fill-rule="evenodd" clip-rule="evenodd" d="M89.7903 39H90.1493V49.8252H89.7903V39Z"/>
  </mask>
  <path fill-rule="evenodd" clip-rule="evenodd" d="M89.7903 39H90.1493V49.8252H89.7903V39Z" fill="#151515"/>
  <path d="M89.7903 39V38H88.7903V39H89.7903ZM90.1493 39H91.1493V38H90.1493V39ZM90.1493 49.8252V50.8252H91.1493V49.8252H90.1493ZM89.7903 49.8252H88.7903V50.8252H89.7903V49.8252ZM89.7903 40H90.1493V38H89.7903V40ZM89.1493 39V49.8252H91.1493V39H89.1493ZM90.1493 48.8252H89.7903V50.8252H90.1493V48.8252ZM90.7903 49.8252V39H88.7903V49.8252H90.7903Z" fill="#151515" mask="url(#path-20-inside-5_46_651)"/>
  <mask id="path-22-inside-6_46_651" fill="white">
    <path fill-rule="evenodd" clip-rule="evenodd" d="M89 39H89.6415V49.8252H89V39Z"/>
  </mask>
  <path fill-rule="evenodd" clip-rule="evenodd" d="M89 39H89.6415V49.8252H89V39Z" fill="#151515"/>
  <path d="M89 39V38H88V39H89ZM89.6415 39H90.6415V38H89.6415V39ZM89.6415 49.8252V50.8252H90.6415V49.8252H89.6415ZM89 49.8252H88V50.8252H89V49.8252ZM89 40H89.6415V38H89V40ZM88.6415 39V49.8252H90.6415V39H88.6415ZM89.6415 48.8252H89V50.8252H89.6415V48.8252ZM90 49.8252V39H88V49.8252H90Z" fill="#151515" mask="url(#path-22-inside-6_46_651)"/>
  <path d="M97.3236 39.5H97.4813V49.3252H97.3236V39.5Z" fill="#151515" stroke="#151515"/>
  <mask id="path-25-inside-7_46_651" fill="white">
    <path fill-rule="evenodd" clip-rule="evenodd" d="M98.3446 39H98.7036V49.8252H98.3446V39Z"/>
  </mask>
  <path fill-rule="evenodd" clip-rule="evenodd" d="M98.3446 39H98.7036V49.8252H98.3446V39Z" fill="#151515"/>
  <path d="M98.3446 39V38H97.3446V39H98.3446ZM98.7036 39H99.7036V38H98.7036V39ZM98.7036 49.8252V50.8252H99.7036V49.8252H98.7036ZM98.3446 49.8252H97.3446V50.8252H98.3446V49.8252ZM98.3446 40H98.7036V38H98.3446V40ZM97.7036 39V49.8252H99.7036V39H97.7036ZM98.7036 48.8252H98.3446V50.8252H98.7036V48.8252ZM99.3446 49.8252V39H97.3446V49.8252H99.3446Z" fill="#151515" mask="url(#path-25-inside-7_46_651)"/>
  <mask id="path-27-inside-8_46_651" fill="white">
    <path fill-rule="evenodd" clip-rule="evenodd" d="M99.0159 39H99.6574V49.8252H99.0159V39Z"/>
  </mask>
  <path fill-rule="evenodd" clip-rule="evenodd" d="M99.0159 39H99.6574V49.8252H99.0159V39Z" fill="#151515"/>
  <path d="M99.0159 39V38H98.0159V39H99.0159ZM99.6574 39H100.657V38H99.6574V39ZM99.6574 49.8252V50.8252H100.657V49.8252H99.6574ZM99.0159 49.8252H98.0159V50.8252H99.0159V49.8252ZM99.0159 40H99.6574V38H99.0159V40ZM98.6574 39V49.8252H100.657V39H98.6574ZM99.6574 48.8252H99.0159V50.8252H99.6574V48.8252ZM100.016 49.8252V39H98.0159V49.8252H100.016Z" fill="#151515" mask="url(#path-27-inside-8_46_651)"/>
  <mask id="path-29-inside-9_46_651" fill="white">
    <path fill-rule="evenodd" clip-rule="evenodd" d="M100.276 39H100.632V49.8252H100.276V39Z"/>
  </mask>
  <path fill-rule="evenodd" clip-rule="evenodd" d="M100.276 39H100.632V49.8252H100.276V39Z" fill="#151515"/>
  <path d="M100.276 39V38H99.2755V39H100.276ZM100.632 39H101.632V38H100.632V39ZM100.632 49.8252V50.8252H101.632V49.8252H100.632ZM100.276 49.8252H99.2755V50.8252H100.276V49.8252ZM100.276 40H100.632V38H100.276V40ZM99.6324 39V49.8252H101.632V39H99.6324ZM100.632 48.8252H100.276V50.8252H100.632V48.8252ZM101.276 49.8252V39H99.2755V49.8252H101.276Z" fill="#151515" mask="url(#path-29-inside-9_46_651)"/>
  <mask id="path-31-inside-10_46_651" fill="white">
    <path fill-rule="evenodd" clip-rule="evenodd" d="M100.79 39H101.066V49.8252H100.79V39Z"/>
  </mask>
  <path fill-rule="evenodd" clip-rule="evenodd" d="M100.79 39H101.066V49.8252H100.79V39Z" fill="#151515"/>
  <path d="M100.79 39V38H99.7897V39H100.79ZM101.066 39H102.066V38H101.066V39ZM101.066 49.8252V50.8252H102.066V49.8252H101.066ZM100.79 49.8252H99.7897V50.8252H100.79V49.8252ZM100.79 40H101.066V38H100.79V40ZM100.066 39V49.8252H102.066V39H100.066ZM101.066 48.8252H100.79V50.8252H101.066V48.8252ZM101.79 49.8252V39H99.7897V49.8252H101.79Z" fill="#151515" mask="url(#path-31-inside-10_46_651)"/>
  <mask id="path-33-inside-11_46_651" fill="white">
    <path fill-rule="evenodd" clip-rule="evenodd" d="M95.9463 39H96.3032V49.8252H95.9463V39Z"/>
  </mask>
  <path fill-rule="evenodd" clip-rule="evenodd" d="M95.9463 39H96.3032V49.8252H95.9463V39Z" fill="#151515"/>
  <path d="M95.9463 39V38H94.9463V39H95.9463ZM96.3032 39H97.3032V38H96.3032V39ZM96.3032 49.8252V50.8252H97.3032V49.8252H96.3032ZM95.9463 49.8252H94.9463V50.8252H95.9463V49.8252ZM95.9463 40H96.3032V38H95.9463V40ZM95.3032 39V49.8252H97.3032V39H95.3032ZM96.3032 48.8252H95.9463V50.8252H96.3032V48.8252ZM96.9463 49.8252V39H94.9463V49.8252H96.9463Z" fill="#151515" mask="url(#path-33-inside-11_46_651)"/>
  <mask id="path-35-inside-12_46_651" fill="white">
    <path fill-rule="evenodd" clip-rule="evenodd" d="M95.1561 39H95.7977V49.8252H95.1561V39Z"/>
  </mask>
  <path fill-rule="evenodd" clip-rule="evenodd" d="M95.1561 39H95.7977V49.8252H95.1561V39Z" fill="#151515"/>
  <path d="M95.1561 39V38H94.1561V39H95.1561ZM95.7977 39H96.7977V38H95.7977V39ZM95.7977 49.8252V50.8252H96.7977V49.8252H95.7977ZM95.1561 49.8252H94.1561V50.8252H95.1561V49.8252ZM95.1561 40H95.7977V38H95.1561V40ZM94.7977 39V49.8252H96.7977V39H94.7977ZM95.7977 48.8252H95.1561V50.8252H95.7977V48.8252ZM96.1561 49.8252V39H94.1561V49.8252H96.1561Z" fill="#151515" mask="url(#path-35-inside-12_46_651)"/>
  <mask id="path-37-inside-13_46_651" fill="white">
    <path fill-rule="evenodd" clip-rule="evenodd" d="M101.52 39H102.16V49.8252H101.52V39Z"/>
  </mask>
  <path fill-rule="evenodd" clip-rule="evenodd" d="M101.52 39H102.16V49.8252H101.52V39Z" fill="#151515"/>
  <path d="M101.52 39V38H100.52V39H101.52ZM102.16 39H103.16V38H102.16V39ZM102.16 49.8252V50.8252H103.16V49.8252H102.16ZM101.52 49.8252H100.52V50.8252H101.52V49.8252ZM101.52 40H102.16V38H101.52V40ZM101.16 39V49.8252H103.16V39H101.16ZM102.16 48.8252H101.52V50.8252H102.16V48.8252ZM102.52 49.8252V39H100.52V49.8252H102.52Z" fill="#151515" mask="url(#path-37-inside-13_46_651)"/>
  <mask id="path-39-inside-14_46_651" fill="white">
    <path fill-rule="evenodd" clip-rule="evenodd" d="M102.778 39H103.137V49.8252H102.778V39Z"/>
  </mask>
  <path fill-rule="evenodd" clip-rule="evenodd" d="M102.778 39H103.137V49.8252H102.778V39Z" fill="#151515"/>
  <path d="M102.778 39V38H101.778V39H102.778ZM103.137 39H104.137V38H103.137V39ZM103.137 49.8252V50.8252H104.137V49.8252H103.137ZM102.778 49.8252H101.778V50.8252H102.778V49.8252ZM102.778 40H103.137V38H102.778V40ZM102.137 39V49.8252H104.137V39H102.137ZM103.137 48.8252H102.778V50.8252H103.137V48.8252ZM103.778 49.8252V39H101.778V49.8252H103.778Z" fill="#151515" mask="url(#path-39-inside-14_46_651)"/>
  <mask id="path-41-inside-15_46_651" fill="white">
    <path fill-rule="evenodd" clip-rule="evenodd" d="M103.294 39H103.568V49.8252H103.294V39Z"/>
  </mask>
  <path fill-rule="evenodd" clip-rule="evenodd" d="M103.294 39H103.568V49.8252H103.294V39Z" fill="#151515"/>
  <path d="M103.294 39V38H102.294V39H103.294ZM103.568 39H104.568V38H103.568V39ZM103.568 49.8252V50.8252H104.568V49.8252H103.568ZM103.294 49.8252H102.294V50.8252H103.294V49.8252ZM103.294 40H103.568V38H103.294V40ZM102.568 39V49.8252H104.568V39H102.568ZM103.568 48.8252H103.294V50.8252H103.568V48.8252ZM104.294 49.8252V39H102.294V49.8252H104.294Z" fill="#151515" mask="url(#path-41-inside-15_46_651)"/>
  <mask id="path-43-inside-16_46_651" fill="white">
    <path fill-rule="evenodd" clip-rule="evenodd" d="M104.605 39H104.964V49.8252H104.605V39Z"/>
  </mask>
  <path fill-rule="evenodd" clip-rule="evenodd" d="M104.605 39H104.964V49.8252H104.605V39Z" fill="#151515"/>
  <path d="M104.605 39V38H103.605V39H104.605ZM104.964 39H105.964V38H104.964V39ZM104.964 49.8252V50.8252H105.964V49.8252H104.964ZM104.605 49.8252H103.605V50.8252H104.605V49.8252ZM104.605 40H104.964V38H104.605V40ZM103.964 39V49.8252H105.964V39H103.964ZM104.964 48.8252H104.605V50.8252H104.964V48.8252ZM105.605 49.8252V39H103.605V49.8252H105.605Z" fill="#151515" mask="url(#path-43-inside-16_46_651)"/>
  <mask id="path-45-inside-17_46_651" fill="white">
    <path fill-rule="evenodd" clip-rule="evenodd" d="M103.815 39H104.456V49.8252H103.815V39Z"/>
  </mask>
  <path fill-rule="evenodd" clip-rule="evenodd" d="M103.815 39H104.456V49.8252H103.815V39Z" fill="#151515"/>
  <path d="M103.815 39V38H102.815V39H103.815ZM104.456 39H105.456V38H104.456V39ZM104.456 49.8252V50.8252H105.456V49.8252H104.456ZM103.815 49.8252H102.815V50.8252H103.815V49.8252ZM103.815 40H104.456V38H103.815V40ZM103.456 39V49.8252H105.456V39H103.456ZM104.456 48.8252H103.815V50.8252H104.456V48.8252ZM104.815 49.8252V39H102.815V49.8252H104.815Z" fill="#151515" mask="url(#path-45-inside-17_46_651)"/>
  <mask id="path-47-inside-18_46_651" fill="white">
    <path fill-rule="evenodd" clip-rule="evenodd" d="M105.44 39H105.799V49.8252H105.44V39Z"/>
  </mask>
  <path fill-rule="evenodd" clip-rule="evenodd" d="M105.44 39H105.799V49.8252H105.44V39Z" fill="#151515"/>
  <path d="M105.44 39V38H104.44V39H105.44ZM105.799 39H106.799V38H105.799V39ZM105.799 49.8252V50.8252H106.799V49.8252H105.799ZM105.44 49.8252H104.44V50.8252H105.44V49.8252ZM105.44 40H105.799V38H105.44V40ZM104.799 39V49.8252H106.799V39H104.799ZM105.799 48.8252H105.44V50.8252H105.799V48.8252ZM106.44 49.8252V39H104.44V49.8252H106.44Z" fill="#151515" mask="url(#path-47-inside-18_46_651)"/>
  <mask id="path-49-inside-19_46_651" fill="white">
    <path fill-rule="evenodd" clip-rule="evenodd" d="M105.954 39H106.23V49.8252H105.954V39Z"/>
  </mask>
  <path fill-rule="evenodd" clip-rule="evenodd" d="M105.954 39H106.23V49.8252H105.954V39Z" fill="#151515"/>
  <path d="M105.954 39V38H104.954V39H105.954ZM106.23 39H107.23V38H106.23V39ZM106.23 49.8252V50.8252H107.23V49.8252H106.23ZM105.954 49.8252H104.954V50.8252H105.954V49.8252ZM105.954 40H106.23V38H105.954V40ZM105.23 39V49.8252H107.23V39H105.23ZM106.23 48.8252H105.954V50.8252H106.23V48.8252ZM106.954 49.8252V39H104.954V49.8252H106.954Z" fill="#151515" mask="url(#path-49-inside-19_46_651)"/>
  <mask id="path-51-inside-20_46_651" fill="white">
    <path fill-rule="evenodd" clip-rule="evenodd" d="M107.264 39H107.623V49.8252H107.264V39Z"/>
  </mask>
  <path fill-rule="evenodd" clip-rule="evenodd" d="M107.264 39H107.623V49.8252H107.264V39Z" fill="#151515"/>
  <path d="M107.264 39V38H106.264V39H107.264ZM107.623 39H108.623V38H107.623V39ZM107.623 49.8252V50.8252H108.623V49.8252H107.623ZM107.264 49.8252H106.264V50.8252H107.264V49.8252ZM107.264 40H107.623V38H107.264V40ZM106.623 39V49.8252H108.623V39H106.623ZM107.623 48.8252H107.264V50.8252H107.623V48.8252ZM108.264 49.8252V39H106.264V49.8252H108.264Z" fill="#151515" mask="url(#path-51-inside-20_46_651)"/>
  <mask id="path-53-inside-21_46_651" fill="white">
    <path fill-rule="evenodd" clip-rule="evenodd" d="M106.474 39H107.116V49.8252H106.474V39Z"/>
  </mask>
  <path fill-rule="evenodd" clip-rule="evenodd" d="M106.474 39H107.116V49.8252H106.474V39Z" fill="#151515"/>
  <path d="M106.474 39V38H105.474V39H106.474ZM107.116 39H108.116V38H107.116V39ZM107.116 49.8252V50.8252H108.116V49.8252H107.116ZM106.474 49.8252H105.474V50.8252H106.474V49.8252ZM106.474 40H107.116V38H106.474V40ZM106.116 39V49.8252H108.116V39H106.116ZM107.116 48.8252H106.474V50.8252H107.116V48.8252ZM107.474 49.8252V39H105.474V49.8252H107.474Z" fill="#151515" mask="url(#path-53-inside-21_46_651)"/>
  <path d="M108.436 39.5H108.591V49.3252H108.436V39.5Z" fill="#151515" stroke="#151515"/>
  <mask id="path-56-inside-22_46_651" fill="white">
    <path fill-rule="evenodd" clip-rule="evenodd" d="M109.457 39H109.814V49.8252H109.457V39Z"/>
  </mask>
  <path fill-rule="evenodd" clip-rule="evenodd" d="M109.457 39H109.814V49.8252H109.457V39Z" fill="#151515"/>
  <path d="M109.457 39V38H108.457V39H109.457ZM109.814 39H110.814V38H109.814V39ZM109.814 49.8252V50.8252H110.814V49.8252H109.814ZM109.457 49.8252H108.457V50.8252H109.457V49.8252ZM109.457 40H109.814V38H109.457V40ZM108.814 39V49.8252H110.814V39H108.814ZM109.814 48.8252H109.457V50.8252H109.814V48.8252ZM110.457 49.8252V39H108.457V49.8252H110.457Z" fill="#151515" mask="url(#path-56-inside-22_46_651)"/>
  <mask id="path-58-inside-23_46_651" fill="white">
    <path fill-rule="evenodd" clip-rule="evenodd" d="M110.126 39H110.767V49.8252H110.126V39Z"/>
  </mask>
  <path fill-rule="evenodd" clip-rule="evenodd" d="M110.126 39H110.767V49.8252H110.126V39Z" fill="#151515"/>
  <path d="M110.126 39V38H109.126V39H110.126ZM110.767 39H111.767V38H110.767V39ZM110.767 49.8252V50.8252H111.767V49.8252H110.767ZM110.126 49.8252H109.126V50.8252H110.126V49.8252ZM110.126 40H110.767V38H110.126V40ZM109.767 39V49.8252H111.767V39H109.767ZM110.767 48.8252H110.126V50.8252H110.767V48.8252ZM111.126 49.8252V39H109.126V49.8252H111.126Z" fill="#151515" mask="url(#path-58-inside-23_46_651)"/>
  <mask id="path-60-inside-24_46_651" fill="white">
    <path fill-rule="evenodd" clip-rule="evenodd" d="M111.385 39H111.744V49.8252H111.385V39Z"/>
  </mask>
  <path fill-rule="evenodd" clip-rule="evenodd" d="M111.385 39H111.744V49.8252H111.385V39Z" fill="#151515"/>
  <path d="M111.385 39V38H110.385V39H111.385ZM111.744 39H112.744V38H111.744V39ZM111.744 49.8252V50.8252H112.744V49.8252H111.744ZM111.385 49.8252H110.385V50.8252H111.385V49.8252ZM111.385 40H111.744V38H111.385V40ZM110.744 39V49.8252H112.744V39H110.744ZM111.744 48.8252H111.385V50.8252H111.744V48.8252ZM112.385 49.8252V39H110.385V49.8252H112.385Z" fill="#151515" mask="url(#path-60-inside-24_46_651)"/>
  <mask id="path-62-inside-25_46_651" fill="white">
    <path fill-rule="evenodd" clip-rule="evenodd" d="M111.9 39H112.176V49.8252H111.9V39Z"/>
  </mask>
  <path fill-rule="evenodd" clip-rule="evenodd" d="M111.9 39H112.176V49.8252H111.9V39Z" fill="#151515"/>
  <path d="M111.9 39V38H110.9V39H111.9ZM112.176 39H113.176V38H112.176V39ZM112.176 49.8252V50.8252H113.176V49.8252H112.176ZM111.9 49.8252H110.9V50.8252H111.9V49.8252ZM111.9 40H112.176V38H111.9V40ZM111.176 39V49.8252H113.176V39H111.176ZM112.176 48.8252H111.9V50.8252H112.176V48.8252ZM112.9 49.8252V39H110.9V49.8252H112.9Z" fill="#151515" mask="url(#path-62-inside-25_46_651)"/>
  <mask id="path-64-inside-26_46_651" fill="white">
    <path fill-rule="evenodd" clip-rule="evenodd" d="M112.63 39H113.272V49.8252H112.63V39Z"/>
  </mask>
  <path fill-rule="evenodd" clip-rule="evenodd" d="M112.63 39H113.272V49.8252H112.63V39Z" fill="#151515"/>
  <path d="M112.63 39V38H111.63V39H112.63ZM113.272 39H114.272V38H113.272V39ZM113.272 49.8252V50.8252H114.272V49.8252H113.272ZM112.63 49.8252H111.63V50.8252H112.63V49.8252ZM112.63 40H113.272V38H112.63V40ZM112.272 39V49.8252H114.272V39H112.272ZM113.272 48.8252H112.63V50.8252H113.272V48.8252ZM113.63 49.8252V39H111.63V49.8252H113.63Z" fill="#151515" mask="url(#path-64-inside-26_46_651)"/>
  <path fill-rule="evenodd" clip-rule="evenodd" d="M90.3086 49.8481H112.467V43.7812H90.3086V49.8481Z" fill="white"/>
  <path d="M93.6525 46.7861C93.5954 46.811 93.5365 46.8323 93.4766 46.8502L93.4117 46.633M93.6525 46.7861L93.3381 46.3865L93.338 46.3865L93.4117 46.633M93.6525 46.7861L93.5395 47.1291M93.6525 46.7861L93.5395 47.1291M93.4117 46.633C93.4121 46.633 93.4125 46.6331 93.4128 46.6332L93.4784 46.8497C93.3136 46.8996 93.1039 46.9229 92.8682 46.9312M93.4117 46.633C93.2648 46.6071 93.1043 46.5927 92.9347 46.5865L92.7217 46.6921L92.6409 46.7322L92.474 46.8149L92.6409 46.8642L92.7217 46.888L92.8682 46.9312M92.8682 46.9312C92.8204 46.9329 92.7715 46.9339 92.7217 46.9345C92.695 46.9347 92.6681 46.9349 92.6409 46.9349H91.4535H91.4514H91.2249L93.5246 47.1741L93.5395 47.1291M92.8682 46.9312L93.5395 47.1291M93.5396 47.1292L93.6542 46.7854L93.5396 47.1292Z" fill="#151515" stroke="#151515"/>
  <mask id="path-68-inside-27_46_651" fill="white">
    <path d="M95.5321 47.627C95.5321 46.892 95.736 46.3482 96.146 45.9934C96.488 45.7003 96.9044 45.5537 97.3972 45.5537C97.9431 45.5537 98.3892 45.7321 98.7376 46.0911C99.0839 46.448 99.2581 46.943 99.2581 47.5718C99.2581 48.0837 99.1816 48.4831 99.0286 48.7762C98.8757 49.0694 98.6526 49.2967 98.3574 49.4581C98.0642 49.6195 97.7435 49.7003 97.3972 49.7003C96.8406 49.7003 96.3903 49.5218 96.0462 49.1671C95.7042 48.8102 95.5321 48.2961 95.5321 47.627ZM96.2225 47.6291C96.2225 48.1368 96.333 48.5192 96.556 48.7698C96.779 49.0226 97.0594 49.1501 97.3972 49.1501C97.7328 49.1501 98.0111 49.0226 98.2342 48.7698C98.4572 48.5149 98.5677 48.1283 98.5677 47.6079C98.5677 47.1172 98.4551 46.7454 98.232 46.4948C98.009 46.242 97.7307 46.1145 97.3972 46.1145C97.0594 46.1145 96.779 46.2398 96.556 46.4905C96.333 46.7412 96.2225 47.1214 96.2225 47.6291Z"/>
  </mask>
  <path d="M95.5321 47.627C95.5321 46.892 95.736 46.3482 96.146 45.9934C96.488 45.7003 96.9044 45.5537 97.3972 45.5537C97.9431 45.5537 98.3892 45.7321 98.7376 46.0911C99.0839 46.448 99.2581 46.943 99.2581 47.5718C99.2581 48.0837 99.1816 48.4831 99.0286 48.7762C98.8757 49.0694 98.6526 49.2967 98.3574 49.4581C98.0642 49.6195 97.7435 49.7003 97.3972 49.7003C96.8406 49.7003 96.3903 49.5218 96.0462 49.1671C95.7042 48.8102 95.5321 48.2961 95.5321 47.627ZM96.2225 47.6291C96.2225 48.1368 96.333 48.5192 96.556 48.7698C96.779 49.0226 97.0594 49.1501 97.3972 49.1501C97.7328 49.1501 98.0111 49.0226 98.2342 48.7698C98.4572 48.5149 98.5677 48.1283 98.5677 47.6079C98.5677 47.1172 98.4551 46.7454 98.232 46.4948C98.009 46.242 97.7307 46.1145 97.3972 46.1145C97.0594 46.1145 96.779 46.2398 96.556 46.4905C96.333 46.7412 96.2225 47.1214 96.2225 47.6291Z" fill="#151515"/>
  <path d="M96.146 45.9934L95.4952 45.2342L95.4917 45.2372L96.146 45.9934ZM98.7376 46.0911L99.4553 45.3948L99.4553 45.3947L98.7376 46.0911ZM98.3574 49.4581L97.8776 48.5807L97.875 48.5822L98.3574 49.4581ZM96.0462 49.1671L95.3242 49.859L95.3284 49.8634L96.0462 49.1671ZM96.556 48.7698L97.3058 48.1082L97.3031 48.1051L96.556 48.7698ZM98.2342 48.7698L98.984 49.4315L98.9867 49.4283L98.2342 48.7698ZM98.232 46.4948L97.4822 47.1564L97.485 47.1595L98.232 46.4948ZM96.5321 47.627C96.5321 47.0728 96.681 46.8529 96.8003 46.7496L95.4917 45.2372C94.7911 45.8434 94.5321 46.7112 94.5321 47.627H96.5321ZM96.7968 46.7527C96.9404 46.6296 97.1195 46.5537 97.3972 46.5537V44.5537C96.6892 44.5537 96.0356 44.771 95.4952 45.2342L96.7968 46.7527ZM97.3972 46.5537C97.701 46.5537 97.8787 46.642 98.02 46.7876L99.4553 45.3947C98.8997 44.8223 98.1853 44.5537 97.3972 44.5537V46.5537ZM98.0199 46.7875C98.1407 46.912 98.2581 47.1314 98.2581 47.5718H100.258C100.258 46.7546 100.027 45.984 99.4553 45.3948L98.0199 46.7875ZM98.2581 47.5718C98.2581 48.0015 98.191 48.2198 98.142 48.3136L99.9152 49.2388C100.172 48.7463 100.258 48.1659 100.258 47.5718H98.2581ZM98.142 48.3136C98.0816 48.4295 98.001 48.5132 97.8776 48.5807L98.8371 50.3355C99.3042 50.0801 99.6697 49.7093 99.9152 49.2388L98.142 48.3136ZM97.875 48.5822C97.7353 48.6591 97.5814 48.7003 97.3972 48.7003V50.7003C97.9055 50.7003 98.3932 50.58 98.8398 50.334L97.875 48.5822ZM97.3972 48.7003C97.0753 48.7003 96.8962 48.6071 96.7639 48.4708L95.3284 49.8634C95.8844 50.4366 96.606 50.7003 97.3972 50.7003V48.7003ZM96.7682 48.4752C96.6595 48.3618 96.5321 48.1304 96.5321 47.627H94.5321C94.5321 48.4619 94.7489 49.2586 95.3242 49.859L96.7682 48.4752ZM95.2225 47.6291C95.2225 48.256 95.3552 48.9247 95.8089 49.4346L97.3031 48.1051C97.3107 48.1137 97.2225 48.0176 97.2225 47.6291H95.2225ZM95.8062 49.4315C96.2179 49.8981 96.7709 50.1501 97.3972 50.1501V48.1501C97.3759 48.1501 97.3628 48.1481 97.3562 48.1467C97.3498 48.1454 97.347 48.1442 97.346 48.1437C97.3449 48.1433 97.342 48.1419 97.3365 48.1377C97.3307 48.1334 97.3203 48.1246 97.3058 48.1082L95.8062 49.4315ZM97.3972 50.1501C98.0245 50.1501 98.5743 49.8958 98.984 49.4315L97.4843 48.1082C97.4694 48.1252 97.4585 48.1343 97.4526 48.1388C97.447 48.1431 97.4442 48.1444 97.4436 48.1446C97.443 48.1449 97.4409 48.1459 97.4354 48.147C97.4297 48.1482 97.4176 48.1501 97.3972 48.1501V50.1501ZM98.9867 49.4283C99.4364 48.9144 99.5677 48.2442 99.5677 47.6079H97.5677C97.5677 47.8009 97.5468 47.9309 97.5233 48.0128C97.5119 48.0526 97.5008 48.0779 97.4932 48.0925C97.4894 48.0998 97.4864 48.1046 97.4845 48.1074C97.4826 48.1101 97.4816 48.1113 97.4816 48.1113L98.9867 49.4283ZM99.5677 47.6079C99.5677 46.9817 99.4256 46.3318 98.9791 45.83L97.485 47.1595C97.4862 47.1608 97.5057 47.1824 97.5262 47.2503C97.5476 47.3215 97.5677 47.4361 97.5677 47.6079H99.5677ZM98.9819 45.8331C98.5729 45.3696 98.0235 45.1145 97.3972 45.1145V47.1145C97.4166 47.1145 97.4281 47.1163 97.4334 47.1174C97.4385 47.1185 97.4405 47.1194 97.4411 47.1197C97.4417 47.1199 97.4446 47.1213 97.4504 47.1257C97.4563 47.1302 97.4672 47.1394 97.4822 47.1564L98.9819 45.8331ZM97.3972 45.1145C96.7762 45.1145 96.2232 45.3602 95.8089 45.8258L97.3031 47.1553C97.317 47.1396 97.327 47.1312 97.3324 47.1272C97.3376 47.1234 97.3404 47.122 97.3416 47.1215C97.3429 47.1209 97.3462 47.1195 97.3533 47.1181C97.3608 47.1166 97.3748 47.1145 97.3972 47.1145V45.1145ZM95.8089 45.8258C95.3557 46.3351 95.2225 47.0009 95.2225 47.6291H97.2225C97.2225 47.2419 97.3102 47.1473 97.3031 47.1553L95.8089 45.8258Z" fill="#151515" mask="url(#path-68-inside-27_46_651)"/>
  <mask id="path-70-inside-28_46_651" fill="white">
    <path d="M100.033 49.617V44.1279H100.709V49.617H100.033Z"/>
  </mask>
  <path d="M100.033 49.617V44.1279H100.709V49.617H100.033Z" fill="#151515"/>
  <path d="M100.033 49.617H99.0334V50.617H100.033V49.617ZM100.033 44.1279V43.1279H99.0334V44.1279H100.033ZM100.709 44.1279H101.709V43.1279H100.709V44.1279ZM100.709 49.617V50.617H101.709V49.617H100.709ZM101.033 49.617V44.1279H99.0334V49.617H101.033ZM100.033 45.1279H100.709V43.1279H100.033V45.1279ZM99.709 44.1279V49.617H101.709V44.1279H99.709ZM100.709 48.617H100.033V50.617H100.709V48.617Z" fill="#151515" mask="url(#path-70-inside-28_46_651)"/>
  <mask id="path-72-inside-29_46_651" fill="white">
    <path d="M104.467 48.328L105.163 48.4193C105.055 48.8251 104.851 49.1395 104.556 49.3646C104.258 49.5877 103.88 49.7003 103.419 49.7003C102.839 49.7003 102.379 49.5218 102.039 49.1628C101.699 48.806 101.529 48.3046 101.529 47.6589C101.529 46.9918 101.701 46.4735 102.043 46.106C102.387 45.7364 102.833 45.5537 103.381 45.5537C103.912 45.5537 104.346 45.7343 104.681 46.0954C105.017 46.4565 105.187 46.9663 105.187 47.6206C105.187 47.661 105.185 47.7205 105.183 47.7991H102.219C102.245 48.2345 102.368 48.5702 102.589 48.8017C102.81 49.0332 103.088 49.1501 103.417 49.1501C103.664 49.1501 103.874 49.0842 104.048 48.9546C104.227 48.8229 104.365 48.6148 104.467 48.328ZM102.257 47.2489H104.473C104.443 46.9132 104.358 46.6647 104.218 46.4969C104.006 46.2377 103.725 46.1081 103.385 46.1081C103.075 46.1081 102.816 46.2122 102.606 46.4183C102.398 46.6222 102.281 46.9005 102.257 47.2489Z"/>
  </mask>
  <path d="M104.467 48.328L105.163 48.4193C105.055 48.8251 104.851 49.1395 104.556 49.3646C104.258 49.5877 103.88 49.7003 103.419 49.7003C102.839 49.7003 102.379 49.5218 102.039 49.1628C101.699 48.806 101.529 48.3046 101.529 47.6589C101.529 46.9918 101.701 46.4735 102.043 46.106C102.387 45.7364 102.833 45.5537 103.381 45.5537C103.912 45.5537 104.346 45.7343 104.681 46.0954C105.017 46.4565 105.187 46.9663 105.187 47.6206C105.187 47.661 105.185 47.7205 105.183 47.7991H102.219C102.245 48.2345 102.368 48.5702 102.589 48.8017C102.81 49.0332 103.088 49.1501 103.417 49.1501C103.664 49.1501 103.874 49.0842 104.048 48.9546C104.227 48.8229 104.365 48.6148 104.467 48.328ZM102.257 47.2489H104.473C104.443 46.9132 104.358 46.6647 104.218 46.4969C104.006 46.2377 103.725 46.1081 103.385 46.1081C103.075 46.1081 102.816 46.2122 102.606 46.4183C102.398 46.6222 102.281 46.9005 102.257 47.2489Z" fill="#151515"/>
  <path d="M104.467 48.328L104.597 47.3365L103.795 47.2314L103.524 47.993L104.467 48.328ZM105.163 48.4193L106.13 48.6773L106.424 47.576L105.293 47.4278L105.163 48.4193ZM104.556 49.3646L105.156 50.1647L105.162 50.1598L104.556 49.3646ZM102.039 49.1628L102.765 48.4753L102.763 48.4732L102.039 49.1628ZM102.043 46.106L101.311 45.4246L101.311 45.4248L102.043 46.106ZM105.183 47.7991V48.7991H106.156L106.182 47.8261L105.183 47.7991ZM102.219 47.7991V46.7991H101.159L101.221 47.8575L102.219 47.7991ZM104.048 48.9546L103.454 48.1501L103.451 48.1523L104.048 48.9546ZM102.257 47.2489L101.26 47.1819L101.188 48.2489H102.257V47.2489ZM104.473 47.2489V48.2489H105.566L105.469 47.1606L104.473 47.2489ZM104.218 46.4969L103.445 47.1308L103.451 47.138L104.218 46.4969ZM102.606 46.4183L103.306 47.1326L103.306 47.1326L102.606 46.4183ZM104.337 49.3195L105.033 49.4109L105.293 47.4278L104.597 47.3365L104.337 49.3195ZM104.197 48.1614C104.139 48.378 104.049 48.4934 103.949 48.5695L105.162 50.1598C105.653 49.7855 105.971 49.2721 106.13 48.6773L104.197 48.1614ZM103.956 48.5646C103.868 48.6306 103.714 48.7003 103.419 48.7003V50.7003C104.046 50.7003 104.649 50.5447 105.156 50.1646L103.956 48.5646ZM103.419 48.7003C103.06 48.7003 102.882 48.5988 102.765 48.4753L101.312 49.8503C101.875 50.4448 102.619 50.7003 103.419 50.7003V48.7003ZM102.763 48.4732C102.65 48.3543 102.529 48.1301 102.529 47.6589H100.529C100.529 48.4792 100.748 49.2576 101.314 49.8525L102.763 48.4732ZM102.529 47.6589C102.529 47.1606 102.655 46.9162 102.775 46.7873L101.311 45.4248C100.747 46.0308 100.529 46.823 100.529 47.6589H102.529ZM102.775 46.7874C102.911 46.6416 103.081 46.5537 103.381 46.5537V44.5537C102.585 44.5537 101.863 44.8312 101.311 45.4246L102.775 46.7874ZM103.381 46.5537C103.658 46.5537 103.818 46.6356 103.949 46.7762L105.414 45.4146C104.873 44.833 104.166 44.5537 103.381 44.5537V46.5537ZM103.949 46.7762C104.063 46.8996 104.187 47.1364 104.187 47.6206H106.187C106.187 46.7963 105.97 46.0134 105.414 45.4146L103.949 46.7762ZM104.187 47.6206C104.187 47.643 104.185 47.6761 104.183 47.772L106.182 47.8261C106.184 47.7648 106.187 47.679 106.187 47.6206H104.187ZM105.183 46.7991H102.219V48.7991H105.183V46.7991ZM101.221 47.8575C101.255 48.4419 101.429 49.0348 101.865 49.492L103.312 48.1114C103.307 48.1056 103.234 48.0272 103.217 47.7406L101.221 47.8575ZM101.865 49.492C102.281 49.9281 102.824 50.1501 103.417 50.1501V48.1501C103.373 48.1501 103.354 48.1427 103.35 48.1409C103.346 48.1392 103.334 48.134 103.312 48.1114L101.865 49.492ZM103.417 50.1501C103.852 50.1501 104.278 50.0301 104.645 49.757L103.451 48.1523C103.453 48.1512 103.455 48.1497 103.458 48.1482C103.46 48.1474 103.461 48.1469 103.462 48.1465C103.463 48.1461 103.463 48.146 103.463 48.146C103.463 48.146 103.462 48.1462 103.461 48.1466C103.459 48.1469 103.457 48.1474 103.453 48.1479C103.446 48.1489 103.434 48.1501 103.417 48.1501V50.1501ZM104.642 49.7592C105.033 49.471 105.266 49.066 105.409 48.663L103.524 47.993C103.464 48.1635 103.421 48.1749 103.454 48.1501L104.642 49.7592ZM102.257 48.2489H104.473V46.2489H102.257V48.2489ZM105.469 47.1606C105.43 46.721 105.309 46.2424 104.986 45.8557L103.451 47.138C103.428 47.1107 103.43 47.1007 103.44 47.1316C103.451 47.164 103.467 47.2286 103.477 47.3371L105.469 47.1606ZM104.992 45.863C104.583 45.3649 104.016 45.1081 103.385 45.1081V47.1081C103.407 47.1081 103.419 47.1101 103.424 47.1112C103.429 47.1123 103.43 47.1128 103.427 47.1119C103.425 47.1109 103.425 47.1101 103.426 47.1113C103.428 47.1126 103.434 47.1181 103.445 47.1308L104.992 45.863ZM103.385 45.1081C102.825 45.1081 102.311 45.3067 101.906 45.704L103.306 47.1326C103.315 47.1237 103.321 47.1194 103.323 47.1176C103.326 47.116 103.327 47.1153 103.329 47.1148C103.329 47.1146 103.344 47.1081 103.385 47.1081V45.1081ZM101.906 45.7039C101.489 46.1123 101.296 46.6392 101.26 47.1819L103.255 47.3158C103.261 47.2346 103.275 47.1885 103.284 47.1663C103.293 47.1464 103.3 47.1383 103.306 47.1326L101.906 45.7039Z" fill="#151515" mask="url(#path-72-inside-29_46_651)"/>
  <mask id="path-74-inside-30_46_651" fill="white">
    <path d="M107.481 49.0137L107.572 49.6085C107.383 49.6489 107.213 49.668 107.065 49.668C106.82 49.668 106.631 49.6298 106.495 49.5512C106.362 49.4726 106.266 49.3727 106.211 49.2453C106.156 49.1178 106.13 48.8523 106.13 48.4487V46.1587H105.633V45.6383H106.132V44.6548L106.808 44.249V45.6383H107.481V46.1587H106.806V48.489C106.806 48.6824 106.816 48.8056 106.842 48.8608C106.865 48.916 106.903 48.9585 106.956 48.9925C107.009 49.0244 107.086 49.0414 107.186 49.0414C107.26 49.0414 107.36 49.0329 107.481 49.0137Z"/>
  </mask>
  <path d="M107.481 49.0137L107.572 49.6085C107.383 49.6489 107.213 49.668 107.065 49.668C106.82 49.668 106.631 49.6298 106.495 49.5512C106.362 49.4726 106.266 49.3727 106.211 49.2453C106.156 49.1178 106.13 48.8523 106.13 48.4487V46.1587H105.633V45.6383H106.132V44.6548L106.808 44.249V45.6383H107.481V46.1587H106.806V48.489C106.806 48.6824 106.816 48.8056 106.842 48.8608C106.865 48.916 106.903 48.9585 106.956 48.9925C107.009 49.0244 107.086 49.0414 107.186 49.0414C107.26 49.0414 107.36 49.0329 107.481 49.0137Z" fill="#151515"/>
  <path d="M107.481 49.0137L108.469 48.8619L108.317 47.8694L107.325 48.026L107.481 49.0137ZM107.572 49.6085L107.781 50.5865L108.704 50.3895L108.561 49.4567L107.572 49.6085ZM106.495 49.5512L105.989 50.4135L105.995 50.4169L106.495 49.5512ZM106.13 46.1587H107.13V45.1587H106.13V46.1587ZM105.633 46.1587H104.633V47.1587H105.633V46.1587ZM105.633 45.6383V44.6383H104.633V45.6383H105.633ZM106.132 45.6383V46.6383H107.132V45.6383H106.132ZM106.132 44.6548L105.617 43.7975L105.132 44.0889V44.6548H106.132ZM106.808 44.249H107.808V42.4819L106.293 43.3918L106.808 44.249ZM106.808 45.6383H105.808V46.6383H106.808V45.6383ZM107.481 45.6383H108.481V44.6383H107.481V45.6383ZM107.481 46.1587V47.1587H108.481V46.1587H107.481ZM106.806 46.1587V45.1587H105.806V46.1587H106.806ZM106.842 48.8608L107.763 48.4711L107.756 48.4563L107.75 48.4417L106.842 48.8608ZM106.956 48.9925L106.417 49.8348L106.429 49.8426L106.442 49.85L106.956 48.9925ZM107.186 49.0414V48.0414V49.0414ZM106.493 49.1655L106.584 49.7603L108.561 49.4567L108.469 48.8619L106.493 49.1655ZM107.364 48.6306C107.229 48.6593 107.13 48.668 107.065 48.668V50.668C107.297 50.668 107.538 50.6385 107.781 50.5865L107.364 48.6306ZM107.065 48.668C106.992 48.668 106.953 48.6621 106.94 48.6593C106.926 48.6566 106.951 48.6597 106.996 48.6854L105.995 50.4169C106.347 50.6205 106.737 50.668 107.065 50.668V48.668ZM107.002 48.6889C107.005 48.6905 107.026 48.7035 107.053 48.7327C107.082 48.7634 107.109 48.8028 107.128 48.8477L105.293 49.6429C105.448 50.0001 105.708 50.2487 105.989 50.4135L107.002 48.6889ZM107.128 48.8477C107.151 48.8999 107.156 48.9308 107.154 48.9213C107.153 48.9155 107.149 48.8938 107.145 48.851C107.136 48.7643 107.13 48.6335 107.13 48.4487H105.13C105.13 48.6675 105.137 48.8712 105.155 49.05C105.17 49.207 105.202 49.4321 105.293 49.6429L107.128 48.8477ZM107.13 48.4487V46.1587H105.13V48.4487H107.13ZM106.13 45.1587H105.633V47.1587H106.13V45.1587ZM106.633 46.1587V45.6383H104.633V46.1587H106.633ZM105.633 46.6383H106.132V44.6383H105.633V46.6383ZM107.132 45.6383V44.6548H105.132V45.6383H107.132ZM106.647 45.512L107.323 45.1063L106.293 43.3918L105.617 43.7975L106.647 45.512ZM105.808 44.249V45.6383H107.808V44.249H105.808ZM106.808 46.6383H107.481V44.6383H106.808V46.6383ZM106.481 45.6383V46.1587H108.481V45.6383H106.481ZM107.481 45.1587H106.806V47.1587H107.481V45.1587ZM105.806 46.1587V48.489H107.806V46.1587H105.806ZM105.806 48.489C105.806 48.5992 105.808 48.7138 105.818 48.8207C105.826 48.8983 105.845 49.0881 105.934 49.2798L107.75 48.4417C107.77 48.4857 107.782 48.5226 107.79 48.5476C107.798 48.5731 107.802 48.5932 107.805 48.6057C107.81 48.6293 107.81 48.6405 107.81 48.6327C107.809 48.6263 107.808 48.6114 107.807 48.5857C107.806 48.5605 107.806 48.5286 107.806 48.489H105.806ZM105.921 49.2504C106.033 49.5161 106.218 49.7072 106.417 49.8348L107.495 48.1502C107.537 48.1768 107.588 48.217 107.639 48.2748C107.691 48.3338 107.733 48.4006 107.763 48.4711L105.921 49.2504ZM106.442 49.85C106.712 50.0121 106.994 50.0414 107.186 50.0414V48.0414C107.19 48.0414 107.219 48.0416 107.264 48.0513C107.309 48.0609 107.384 48.083 107.471 48.135L106.442 49.85ZM107.186 50.0414C107.328 50.0414 107.483 50.0259 107.637 50.0015L107.325 48.026C107.283 48.0326 107.25 48.0366 107.225 48.0389C107.212 48.04 107.203 48.0406 107.196 48.041C107.189 48.0414 107.186 48.0414 107.186 48.0414V50.0414Z" fill="#151515" mask="url(#path-74-inside-30_46_651)"/>
  <mask id="path-76-inside-31_46_651" fill="white">
    <path d="M107.893 47.627C107.893 46.892 108.097 46.3482 108.507 45.9934C108.849 45.7003 109.265 45.5537 109.758 45.5537C110.304 45.5537 110.75 45.7321 111.099 46.0911C111.445 46.448 111.619 46.943 111.619 47.5718C111.619 48.0837 111.543 48.4831 111.39 48.7762C111.237 49.0694 111.014 49.2967 110.718 49.4581C110.425 49.6195 110.104 49.7003 109.758 49.7003C109.202 49.7003 108.751 49.5218 108.407 49.1671C108.065 48.8102 107.893 48.2961 107.893 47.627ZM108.583 47.6291C108.583 48.1368 108.694 48.5192 108.917 48.7698C109.14 49.0226 109.42 49.1501 109.758 49.1501C110.094 49.1501 110.372 49.0226 110.595 48.7698C110.818 48.5149 110.929 48.1283 110.929 47.6079C110.929 47.1172 110.816 46.7454 110.593 46.4948C110.37 46.242 110.092 46.1145 109.758 46.1145C109.42 46.1145 109.14 46.2398 108.917 46.4905C108.694 46.7412 108.583 47.1214 108.583 47.6291Z"/>
  </mask>
  <path d="M107.893 47.627C107.893 46.892 108.097 46.3482 108.507 45.9934C108.849 45.7003 109.265 45.5537 109.758 45.5537C110.304 45.5537 110.75 45.7321 111.099 46.0911C111.445 46.448 111.619 46.943 111.619 47.5718C111.619 48.0837 111.543 48.4831 111.39 48.7762C111.237 49.0694 111.014 49.2967 110.718 49.4581C110.425 49.6195 110.104 49.7003 109.758 49.7003C109.202 49.7003 108.751 49.5218 108.407 49.1671C108.065 48.8102 107.893 48.2961 107.893 47.627ZM108.583 47.6291C108.583 48.1368 108.694 48.5192 108.917 48.7698C109.14 49.0226 109.42 49.1501 109.758 49.1501C110.094 49.1501 110.372 49.0226 110.595 48.7698C110.818 48.5149 110.929 48.1283 110.929 47.6079C110.929 47.1172 110.816 46.7454 110.593 46.4948C110.37 46.242 110.092 46.1145 109.758 46.1145C109.42 46.1145 109.14 46.2398 108.917 46.4905C108.694 46.7412 108.583 47.1214 108.583 47.6291Z" fill="#151515"/>
  <path d="M108.507 45.9934L107.856 45.2342L107.853 45.2372L108.507 45.9934ZM111.099 46.0911L111.816 45.3948L111.816 45.3947L111.099 46.0911ZM110.718 49.4581L110.239 48.5807L110.236 48.5822L110.718 49.4581ZM108.407 49.1671L107.685 49.859L107.689 49.8634L108.407 49.1671ZM108.917 48.7698L109.667 48.1082L109.664 48.1051L108.917 48.7698ZM110.595 48.7698L111.345 49.4315L111.348 49.4283L110.595 48.7698ZM110.593 46.4948L109.843 47.1564L109.846 47.1595L110.593 46.4948ZM108.893 47.627C108.893 47.0728 109.042 46.8529 109.161 46.7496L107.853 45.2372C107.152 45.8434 106.893 46.7112 106.893 47.627H108.893ZM109.158 46.7527C109.301 46.6296 109.48 46.5537 109.758 46.5537V44.5537C109.05 44.5537 108.397 44.771 107.856 45.2342L109.158 46.7527ZM109.758 46.5537C110.062 46.5537 110.24 46.642 110.381 46.7876L111.816 45.3947C111.261 44.8223 110.546 44.5537 109.758 44.5537V46.5537ZM110.381 46.7875C110.502 46.912 110.619 47.1314 110.619 47.5718H112.619C112.619 46.7546 112.388 45.984 111.816 45.3948L110.381 46.7875ZM110.619 47.5718C110.619 48.0015 110.552 48.2198 110.503 48.3136L112.276 49.2388C112.533 48.7463 112.619 48.1659 112.619 47.5718H110.619ZM110.503 48.3136C110.443 48.4295 110.362 48.5132 110.239 48.5807L111.198 50.3355C111.665 50.0801 112.031 49.7093 112.276 49.2388L110.503 48.3136ZM110.236 48.5822C110.096 48.6591 109.942 48.7003 109.758 48.7003V50.7003C110.266 50.7003 110.754 50.58 111.201 50.334L110.236 48.5822ZM109.758 48.7003C109.436 48.7003 109.257 48.6071 109.125 48.4708L107.689 49.8634C108.245 50.4366 108.967 50.7003 109.758 50.7003V48.7003ZM109.129 48.4752C109.02 48.3618 108.893 48.1304 108.893 47.627H106.893C106.893 48.4619 107.11 49.2586 107.685 49.859L109.129 48.4752ZM107.583 47.6291C107.583 48.256 107.716 48.9247 108.17 49.4346L109.664 48.1051C109.672 48.1137 109.583 48.0176 109.583 47.6291H107.583ZM108.167 49.4315C108.579 49.8981 109.132 50.1501 109.758 50.1501V48.1501C109.737 48.1501 109.724 48.1481 109.717 48.1467C109.711 48.1454 109.708 48.1442 109.707 48.1437C109.706 48.1433 109.703 48.1419 109.697 48.1377C109.692 48.1334 109.681 48.1246 109.667 48.1082L108.167 49.4315ZM109.758 50.1501C110.386 50.1501 110.935 49.8958 111.345 49.4315L109.845 48.1082C109.83 48.1252 109.819 48.1343 109.814 48.1388C109.808 48.1431 109.805 48.1444 109.805 48.1446C109.804 48.1449 109.802 48.1459 109.796 48.147C109.791 48.1482 109.779 48.1501 109.758 48.1501V50.1501ZM111.348 49.4283C111.797 48.9144 111.929 48.2442 111.929 47.6079H109.929C109.929 47.8009 109.908 47.9309 109.884 48.0128C109.873 48.0526 109.862 48.0779 109.854 48.0925C109.85 48.0998 109.847 48.1046 109.845 48.1074C109.844 48.1101 109.843 48.1113 109.843 48.1113L111.348 49.4283ZM111.929 47.6079C111.929 46.9817 111.787 46.3318 111.34 45.83L109.846 47.1595C109.847 47.1608 109.867 47.1824 109.887 47.2503C109.909 47.3215 109.929 47.4361 109.929 47.6079H111.929ZM111.343 45.8331C110.934 45.3696 110.384 45.1145 109.758 45.1145V47.1145C109.778 47.1145 109.789 47.1163 109.794 47.1174C109.799 47.1185 109.801 47.1194 109.802 47.1197C109.803 47.1199 109.806 47.1213 109.811 47.1257C109.817 47.1302 109.828 47.1394 109.843 47.1564L111.343 45.8331ZM109.758 45.1145C109.137 45.1145 108.584 45.3602 108.17 45.8258L109.664 47.1553C109.678 47.1396 109.688 47.1312 109.693 47.1272C109.699 47.1234 109.701 47.122 109.703 47.1215C109.704 47.1209 109.707 47.1195 109.714 47.1181C109.722 47.1166 109.736 47.1145 109.758 47.1145V45.1145ZM108.17 45.8258C107.717 46.3351 107.583 47.0009 107.583 47.6291H109.583C109.583 47.2419 109.671 47.1473 109.664 47.1553L108.17 45.8258Z" fill="#151515" mask="url(#path-76-inside-31_46_651)"/>
  <rect y="32" width="34" height="24" rx="4" fill="#1F72CD"/>
  <path fill-rule="evenodd" clip-rule="evenodd" d="M6.18111 40L3 47.2467H6.80824L7.28035 46.0913H8.35949L8.8316 47.2467H13.0234V46.3649L13.3969 47.2467H15.5652L15.9387 46.3462V47.2467H24.6566L25.7166 46.1213L26.7092 47.2467L31.1868 47.2561L27.9957 43.6436L31.1868 40H26.7786L25.7467 41.1046L24.7854 40H15.3016L14.4872 41.8704L13.6537 40H9.85343V40.8519L9.43068 40H6.18111ZM6.91801 41.0288H8.77432L10.8844 45.9429V41.0288H12.9179L14.5476 44.5522L16.0496 41.0288H18.073V46.2288H16.8418L16.8318 42.1541L15.0368 46.2288H13.9355L12.1305 42.1541V46.2288H9.59776L9.11759 45.063H6.52341L6.04423 46.2278H4.68719L6.91801 41.0288ZM24.2055 41.0288H19.1993V46.2258H24.128L25.7166 44.5034L27.2477 46.2258H28.8483L26.5219 43.6423L28.8483 41.0288H27.3172L25.7367 42.7314L24.2055 41.0288ZM7.82099 41.9087L6.96631 43.9854H8.67467L7.82099 41.9087ZM20.4356 43.0551V42.1059V42.105H23.5593L24.9223 43.6231L23.4989 45.1495H20.4356V44.1132H23.1667V43.0551H20.4356Z" fill="white"/>
  <rect x="0.5" y="0.5" width="33" height="23" rx="3.5" fill="white" stroke="#D9D9D9"/>
  <path d="M27.8784 8.1123H26.269C25.7825 8.1123 25.4082 8.26201 25.1836 8.74856L22.1146 15.7474H24.2854C24.2854 15.7474 24.6597 14.8117 24.7345 14.5872C24.9591 14.5872 27.0924 14.5872 27.3918 14.5872C27.4667 14.8492 27.6538 15.71 27.6538 15.71H29.6L27.8784 8.1123ZM25.3333 13.0152C25.5205 12.5661 26.1567 10.8819 26.1567 10.8819C26.1567 10.9193 26.3439 10.4328 26.4187 10.1708L26.5684 10.8445C26.5684 10.8445 26.9801 12.6784 27.055 13.0527H25.3333V13.0152Z" fill="#3362AB"/>
  <path d="M22.2644 13.2398C22.2644 14.8117 20.8421 15.8597 18.6339 15.8597C17.6983 15.8597 16.8 15.6725 16.3135 15.448L16.6129 13.7263L16.8749 13.8386C17.5486 14.138 17.9977 14.2503 18.8211 14.2503C19.4199 14.2503 20.0562 14.0257 20.0562 13.5018C20.0562 13.1649 19.7942 12.9404 18.9708 12.5661C18.1848 12.1918 17.1369 11.593 17.1369 10.5076C17.1369 9.01053 18.5965 8 20.655 8C21.441 8 22.1146 8.14971 22.5263 8.33684L22.2269 9.98363L22.0772 9.83392C21.703 9.68421 21.2164 9.5345 20.5053 9.5345C19.7193 9.57193 19.3451 9.90877 19.3451 10.2082C19.3451 10.545 19.7942 10.807 20.5053 11.1439C21.703 11.7053 22.2644 12.3415 22.2644 13.2398Z" fill="#3362AB"/>
  <path d="M4 8.18731L4.03743 8.0376H7.25614C7.70527 8.0376 8.04211 8.18731 8.15439 8.67386L8.8655 12.0423C8.15439 10.2458 6.5076 8.78614 4 8.18731Z" fill="#F9B50B"/>
  <path d="M13.3941 8.11262L10.138 15.7103H7.92982L6.05847 9.34771C7.40584 10.2085 8.52865 11.5559 8.94034 12.4916L9.16491 13.2775L11.186 8.0752H13.3941V8.11262Z" fill="#3362AB"/>
  <path d="M14.255 8.0752H16.3135L15.0035 15.7103H12.9451L14.255 8.0752Z" fill="#3362AB"/>
  <rect x="84.5" y="0.5" width="33" height="23" rx="3.5" fill="white" stroke="#D9D9D9"/>
  <path d="M96.0395 7H93.7593C92.7519 7.04971 91.9284 7.47319 91.6906 8.34647C91.5666 8.80191 91.4984 9.3021 91.4014 9.77421C90.9085 12.1748 90.4715 14.6414 90 16.9941H107.751C109.124 16.9941 110.066 16.6914 110.321 15.5547C110.439 15.0267 110.552 14.4286 110.665 13.8484C111.107 11.5864 111.548 9.32459 112 7H96.0395Z" fill="#B82126"/>
  <path d="M105.198 12.9708C104.952 13.2223 104.261 13.2938 104.331 12.6926C104.39 12.1932 104.911 12.0871 105.476 12.1592C105.434 12.4324 105.386 12.7792 105.198 12.9708ZM104.42 11.023C104.397 11.1607 104.361 11.2854 104.331 11.4172C104.613 11.3434 105.491 11.1173 105.576 11.5099C105.604 11.6404 105.555 11.779 105.52 11.881C104.726 11.8025 104.079 11.9401 103.909 12.5302C103.795 12.9255 103.922 13.3145 104.165 13.423C104.632 13.6321 105.201 13.3926 105.398 13.0636C105.378 13.1775 105.358 13.2925 105.365 13.4346H105.776C105.78 13.0238 105.837 12.6912 105.898 12.3215C105.95 12.0067 106.047 11.695 106.031 11.4172C105.996 10.7808 104.986 11.0059 104.42 11.023ZM108.542 13.1679C108.22 13.1751 108.061 12.9674 108.053 12.623C108.04 12.0198 108.294 11.3497 108.809 11.2896C109.048 11.2617 109.222 11.3198 109.397 11.3824C109.236 12.0599 109.294 13.1511 108.542 13.1679ZM109.609 9.97949C109.568 10.3541 109.513 10.7144 109.442 11.0577C108.27 10.6707 107.551 11.5704 107.564 12.6809C107.567 12.8957 107.602 13.1087 107.731 13.2607C107.953 13.5225 108.588 13.5851 108.909 13.3651C108.971 13.3225 109.034 13.2449 109.075 13.1911C109.106 13.1506 109.155 13.0447 109.164 13.0751C109.147 13.1929 109.122 13.3018 109.12 13.4346H109.553C109.637 12.1845 109.895 11.1168 110.086 9.97949H109.609ZM97.3768 12.9824C97.1212 13.2649 96.4929 13.2606 96.4436 12.7853C96.4221 12.5785 96.496 12.3616 96.5325 12.1477C96.5694 11.9311 96.596 11.7233 96.6324 11.5331C96.8842 11.2123 97.6239 11.1736 97.699 11.7071C97.7641 12.1702 97.5885 12.7485 97.3768 12.9824ZM97.7546 11.023C97.3502 10.8645 96.8574 11.0537 96.6438 11.2337C96.6446 11.2416 96.6387 11.2427 96.6324 11.2433C96.6361 11.2401 96.64 11.2369 96.6438 11.2337C96.6438 11.233 96.6437 11.2324 96.6436 11.2317C96.6472 11.1543 96.6733 11.1004 96.6769 11.023H96.2659C96.0946 12.2123 95.8914 13.3684 95.677 14.5129H96.1547C96.2239 14.0671 96.2696 13.5969 96.3658 13.1795C96.4749 13.6186 97.1873 13.5346 97.4879 13.3651C98.1082 13.015 98.5866 11.3492 97.7546 11.023ZM100.021 11.8578H98.8989C98.9344 11.5886 99.1664 11.2927 99.5321 11.2781C99.8762 11.2643 100.123 11.4099 100.021 11.8578ZM99.5654 10.9766C99.2202 11.0043 98.9285 11.108 98.7211 11.336C98.4668 11.6157 98.2608 12.2339 98.3211 12.7969C98.4072 13.6001 99.3655 13.5713 100.132 13.3766C100.145 13.2357 100.178 13.1152 100.199 12.9824C99.8829 13.1057 99.3347 13.2779 99.0099 13.0636C98.7648 12.9018 98.7633 12.4921 98.8433 12.136C99.3585 12.1189 99.8939 12.1222 100.41 12.136C100.442 11.8837 100.536 11.6085 100.454 11.3592C100.346 11.0301 99.9592 10.945 99.5654 10.9766ZM95.366 11.023C95.353 11.0249 95.3539 11.0413 95.3548 11.0577C95.2496 11.8793 95.1071 12.6621 94.9549 13.4346H95.4326C95.5474 12.6075 95.6789 11.7979 95.8437 11.023H95.366ZM107.831 11.0346C107.409 10.8143 107.057 11.1839 106.92 11.4056C106.959 11.2918 106.961 11.1396 106.998 11.023H106.576C106.462 11.8511 106.325 12.6547 106.165 13.4346H106.653C106.656 13.115 106.717 12.8785 106.764 12.565C106.867 11.8957 107.017 11.1617 107.764 11.3824C107.789 11.2692 107.8 11.1408 107.831 11.0346ZM102.465 12.8665C102.421 12.7478 102.41 12.5517 102.421 12.4027C102.445 12.0677 102.562 11.6598 102.743 11.4752C102.992 11.2203 103.484 11.2625 103.876 11.4056C103.888 11.2676 103.915 11.1445 103.932 11.0114C103.288 10.9018 102.678 10.97 102.354 11.3244C102.037 11.6714 101.829 12.469 101.976 12.9708C102.148 13.5581 102.919 13.59 103.543 13.3651C103.57 13.247 103.585 13.1154 103.609 12.994C103.268 13.1789 102.617 13.275 102.465 12.8665ZM102.198 11.023C101.775 10.8444 101.442 11.1462 101.287 11.4288C101.322 11.3031 101.337 11.1558 101.365 11.023H100.943C100.84 11.8583 100.688 12.6425 100.543 13.4346H101.021C101.088 12.9644 101.117 12.3307 101.265 11.881C101.384 11.5216 101.695 11.2154 102.143 11.3824C102.149 11.2498 102.186 11.1486 102.198 11.023ZM94.4994 10.049C94.4312 10.5112 94.3543 10.9643 94.2772 11.4172C93.7823 11.4226 93.277 11.4427 92.7996 11.4056C92.8898 10.9625 92.9545 10.4928 93.044 10.049H92.5108C92.3199 11.1793 92.1462 12.3276 91.9331 13.4346H92.4775C92.5629 12.8667 92.6427 12.293 92.7552 11.7534C93.2193 11.7415 93.7756 11.7207 94.2217 11.765C94.1297 12.3261 94.0186 12.8671 93.9328 13.4346H94.4772C94.6521 12.2877 94.8364 11.1505 95.0549 10.049H94.4994ZM95.8548 10.5592C95.95 10.4908 96.0727 10.1789 95.9326 10.049C95.8882 10.0079 95.8139 9.99601 95.7104 10.0143C95.6143 10.0312 95.5591 10.0653 95.5215 10.1186C95.4611 10.2044 95.4058 10.4631 95.4993 10.5592C95.5903 10.6528 95.7942 10.6027 95.8548 10.5592Z" fill="white"/>
  <rect x="126.5" y="0.5" width="33" height="23" rx="3.5" fill="white" stroke="#D9D9D9"/>
  <path d="M142.016 9.27158H142.016L140.4 16.0042H140.5V16.004V11.0883C140.5 10.2876 141.177 9.63003 142.015 9.63C142.016 9.63 142.016 9.63 142.016 9.63L143.52 9.63202C143.52 9.63202 143.52 9.63202 143.52 9.63202C144.357 9.63372 145.031 10.2905 145.031 11.0883V11.0883V12.1345C145.031 12.9352 144.354 13.593 143.515 13.593H141.388C141.291 13.593 141.206 13.6699 141.206 13.7722C141.206 13.8746 141.291 13.9514 141.388 13.9514H143.515H143.515C144.548 13.9512 145.395 13.1398 145.395 12.1345V11.0883C145.395 10.0861 144.551 9.27574 143.521 9.27361L143.521 9.27361L142.016 9.27158Z" fill="#3D3D3D" stroke="#3D3D3D" stroke-width="0.2"/>
  <path d="M146.801 13.7948C146.801 13.8971 146.886 13.974 146.983 13.974C147.08 13.974 147.165 13.8971 147.165 13.7948V10.1229C147.165 9.65005 146.767 9.27158 146.286 9.27158H145.633C145.536 9.27158 145.451 9.3484 145.451 9.45079C145.451 9.55318 145.536 9.63 145.633 9.63H146.286C146.573 9.63 146.801 9.85457 146.801 10.1229V13.7948Z" fill="#3D3D3D" stroke="#3D3D3D" stroke-width="0.2"/>
  <path d="M146.843 8.88064L146.547 8.59494C146.473 8.52433 146.473 8.40945 146.547 8.33859L146.843 8.05314C146.916 7.98229 147.036 7.98229 147.109 8.05314L147.405 8.33859C147.478 8.40919 147.478 8.52408 147.405 8.59494L147.108 8.88064C147.034 8.95149 146.915 8.95149 146.842 8.88064" fill="#32BCAD"/>
  <path d="M149.899 9.67277L149.899 9.67273C149.627 9.41101 149.266 9.26719 148.884 9.26719H148.884H148.884H148.884H148.884H148.884H148.884H148.884H148.884H148.884H148.884H148.884H148.884H148.884H148.884H148.884H148.884H148.884H148.884H148.884H148.884H148.884H148.884H148.884H148.884H148.884H148.884H148.884H148.884H148.884H148.884H148.884H148.884H148.884H148.884H148.884H148.884H148.884H148.884H148.884H148.884H148.884H148.884H148.884H148.884H148.884H148.884H148.884H148.884H148.884H148.884H148.884H148.884H148.884H148.884H148.884H148.884H148.884H148.884H148.884H148.884H148.884H148.884H148.884H148.884H148.884H148.884H148.884H148.884H148.884H148.884H148.884H148.884H148.884H148.884H148.884H148.884H148.884H148.884H148.884H148.884H148.884H148.884H148.884H148.884H148.884H148.884H148.884H148.884H148.884H148.884H148.884H148.884H148.884H148.884H148.884H148.884H148.884H148.884H148.884H148.884H148.884H148.884H148.884H148.884H148.884H148.884H148.884H148.884H148.884H148.884H148.884H148.884H148.884H148.884H148.884H148.884H148.884H148.884H148.884H148.884H148.884H148.884H148.884H148.884H148.884H148.884H148.884H148.884H148.884H148.884H148.884H148.884H148.884H148.884H148.884H148.884H148.884H148.884H148.884H148.884H148.884H148.884H148.884H148.884H148.884H148.884H148.884H148.884H148.884H148.884H148.884H148.884H148.884H148.884H148.884H148.884H148.884H148.884H148.884H148.884H148.884H148.884H148.884H148.884H148.884H148.884H148.884H148.884H148.884H148.884H148.884H148.884H148.884H148.884H148.884H148.884H148.884H148.884H148.884H148.884H148.884H148.884H148.884H148.884H148.884H148.884H148.884H148.884H148.884H148.884H148.884H148.884H148.884H148.884H148.884H148.884H148.884H148.884H148.884H148.884H148.884H148.884H148.884H148.884H148.884H148.884H148.884H148.884H148.884H148.884H148.884H148.884H148.884H148.884H148.884H148.884H148.884H148.884H148.884H148.884H148.884H148.884H148.884H148.884H148.884H148.884H148.884H148.884H148.884H148.884H148.884H148.884H148.884H148.884H148.884H148.884H148.884H148.884H148.884H148.884H148.884H148.884H148.884H148.884H148.884H148.884H148.884H148.884H148.884H148.884H148.884H148.884H148.884H148.884H148.884H148.884H148.884H148.884H148.884H148.884H148.884H148.884H148.884H148.884H148.884H148.884H148.884H148.884H148.884H148.884H148.884H148.884H148.884H148.884H148.884H148.884H148.884H148.884H148.884H148.884H148.884H148.884H148.884H148.884H148.884H148.884H148.884H148.884H148.884H148.884H148.884H148.884H148.884H148.884H148.884H148.884H148.884H148.884H148.884H148.884H148.884H148.884H148.884H148.884H148.884H148.884H148.884H148.884H148.884H148.884H148.884H148.884H148.884H148.884H148.884H148.884H148.884H148.884H148.884H148.884H148.884H148.884H148.884H148.884H148.884H148.884H148.884H148.884H148.884H148.884H148.884H148.884H148.884H148.884H148.884H148.884H148.884H148.884H148.884H148.884H148.884H148.884H148.884H148.884H148.884H148.884H148.884H148.884H148.884H148.884H148.884H148.884H148.884H148.884H148.884H148.884H148.884H148.883H148.883H148.883H148.883H148.883H148.883H148.883H148.883H148.883H148.883H148.883H148.883H148.883H148.883H148.883H148.883H148.883H148.883H148.883H148.883H148.883H148.883H148.883H148.883H148.883H148.883H148.883H148.883H148.883H148.883H148.883H148.883H148.883H148.883H148.883H148.883H148.883H148.883H148.883H148.883H148.883H148.883H148.883H148.883H148.883H148.883H148.883H148.883H148.883H148.883H148.883H148.883H148.883H148.883H148.883H148.883H148.883H148.883H148.883H148.883H148.883H148.883H148.883H148.883H148.883H148.883H148.883H148.883H148.883H148.883H148.883H148.883H148.883H148.883H148.883H148.883H148.883H148.883H148.883H148.883H148.883H148.883H148.883H148.883H148.883H148.883H148.883H148.883H148.883H148.883H148.883H148.883H148.883H148.883H148.883H148.883H148.883H148.883H148.883H148.883H148.883H148.883H148.236C148.139 9.26719 148.054 9.34401 148.054 9.44639C148.054 9.54878 148.139 9.6256 148.236 9.6256H148.883H148.883H148.883H148.883H148.883H148.883H148.883H148.883H148.883H148.883H148.883H148.883H148.883H148.883H148.883H148.883H148.883H148.883H148.883H148.883H148.883H148.883H148.883H148.883H148.883H148.883H148.883H148.883H148.883H148.883H148.883H148.883H148.883H148.883H148.883H148.883H148.883H148.883H148.883H148.883H148.883H148.883H148.883H148.883H148.883H148.883H148.883H148.883H148.883H148.883H148.883H148.883H148.883H148.883H148.883H148.883H148.883H148.883H148.883H148.883H148.883H148.883H148.883H148.883H148.883H148.883H148.883H148.883H148.883H148.883H148.883H148.883H148.883H148.883H148.883H148.883H148.883H148.883H148.883H148.883H148.883H148.883H148.883H148.883H148.883H148.883H148.883H148.883H148.883H148.883H148.883H148.883H148.883H148.883H148.883H148.883H148.883H148.883H148.883H148.883H148.883H148.883H148.883H148.883H148.883H148.883H148.883H148.883H148.883H148.883H148.883H148.883H148.883H148.883H148.883H148.883H148.883H148.883H148.883H148.883H148.883H148.883H148.883H148.883H148.883H148.883H148.883H148.884H148.884H148.884H148.884H148.884H148.884H148.884H148.884H148.884H148.884H148.884H148.884H148.884H148.884H148.884H148.884H148.884H148.884H148.884H148.884H148.884H148.884H148.884H148.884H148.884H148.884H148.884H148.884H148.884H148.884H148.884H148.884H148.884H148.884H148.884H148.884H148.884H148.884H148.884H148.884H148.884H148.884H148.884H148.884H148.884H148.884H148.884H148.884H148.884H148.884H148.884H148.884H148.884H148.884H148.884H148.884H148.884H148.884H148.884H148.884H148.884H148.884H148.884H148.884H148.884H148.884H148.884H148.884H148.884H148.884H148.884H148.884H148.884H148.884H148.884H148.884H148.884H148.884H148.884H148.884H148.884H148.884H148.884H148.884H148.884H148.884H148.884H148.884H148.884H148.884H148.884H148.884H148.884H148.884H148.884H148.884H148.884H148.884H148.884H148.884H148.884H148.884H148.884H148.884H148.884H148.884H148.884H148.884H148.884H148.884H148.884H148.884H148.884H148.884H148.884H148.884H148.884H148.884H148.884H148.884H148.884H148.884H148.884H148.884H148.884H148.884H148.884H148.884H148.884H148.884H148.884H148.884H148.884H148.884H148.884H148.884H148.884H148.884H148.884H148.884H148.884H148.884H148.884H148.884H148.884H148.884H148.884H148.884H148.884H148.884H148.884H148.884H148.884H148.884H148.884H148.884H148.884H148.884H148.884H148.884H148.884H148.884H148.884H148.884H148.884H148.884H148.884H148.884H148.884H148.884H148.884H148.884H148.884H148.884H148.884H148.884H148.884H148.884H148.884H148.884H148.884H148.884H148.884H148.884H148.884H148.884H148.884H148.884H148.884H148.884H148.884H148.884H148.884H148.884H148.884H148.884H148.884H148.884H148.884H148.884H148.884H148.884H148.884H148.884H148.884H148.884H148.884H148.884H148.884H148.884H148.884H148.884H148.884H148.884H148.884H148.884H148.884H148.884H148.884H148.884H148.884H148.884H148.884H148.884H148.884H148.884H148.884H148.884H148.884H148.884H148.884H148.884H148.884H148.884H148.884H148.884H148.884H148.884H148.884H148.884H148.884H148.884H148.884H148.884H148.884H148.884H148.884H148.884H148.884H148.884H148.884H148.884H148.884H148.884H148.884H148.884H148.884H148.884H148.884H148.884H148.884H148.884H148.884H148.884H148.884H148.884H148.884H148.884H148.884H148.884H148.884H148.884H148.884H148.884H148.884H148.884H148.884H148.884H148.884H148.884H148.884H148.884H148.884H148.884H148.884H148.884H148.884H148.884H148.884H148.884H148.884H148.884H148.884H148.884H148.884H148.884H148.884H148.884H148.884H148.884H148.884H148.884H148.884H148.884H148.884H148.884H148.884H148.884H148.884H148.884H148.884H148.884H148.884H148.884H148.884H148.884H148.884H148.884H148.884H148.884H148.884H148.884H148.884H148.884H148.884H148.884H148.884H148.884H148.884H148.884H148.884H148.884H148.884H148.884H148.884H148.884H148.884H148.884H148.884H148.884H148.884H148.884H148.884H148.884H148.884H148.884H148.884H148.884H148.884H148.884H148.884H148.884H148.884H148.884H148.884H148.884H148.884H148.884H148.884H148.884H148.884H148.884H148.884H148.884H148.884H148.884H148.884H148.884H148.884H148.884H148.884H148.884H148.884H148.884H148.884H148.884H148.884H148.884H148.884H148.884H148.884H148.884H148.884H148.884H148.884H148.884C149.172 9.6256 149.441 9.73338 149.644 9.92858L151.158 11.3889L151.227 11.317L151.158 11.389L151.158 11.3889C151.292 11.5182 151.467 11.582 151.641 11.582C151.814 11.582 151.989 11.5185 152.122 11.39L152.123 11.3892L152.123 11.3892L153.631 9.93444C153.834 9.73939 154.103 9.63142 154.391 9.63142H154.391H154.391H154.391H154.391H154.391H154.391H154.391H154.391H154.391H154.391H154.391H154.391H154.391H154.391H154.391H154.391H154.391H154.391H154.391H154.391H154.391H154.391H154.391H154.391H154.391H154.391H154.391H154.391H154.391H154.391H154.391H154.391H154.391H154.391H154.391H154.391H154.391H154.391H154.391H154.391H154.391H154.391H154.391H154.391H154.391H154.391H154.391H154.391H154.391H154.391H154.391H154.391H154.391H154.391H154.391H154.391H154.391H154.391H154.391H154.391H154.391H154.391H154.391H154.391H154.391H154.391H154.391H154.391H154.391H154.391H154.391H154.391H154.391H154.391H154.391H154.391H154.391H154.391H154.391H154.391H154.391H154.391H154.391H154.391H154.391H154.391H154.391H154.391H154.391H154.391H154.391H154.391H154.391H154.391H154.391H154.391H154.391H154.391H154.391H154.391H154.391H154.391H154.391H154.391H154.391H154.391H154.391H154.391H154.391H154.391H154.391H154.391H154.391H154.391H154.391H154.391H154.391H154.391H154.392H154.392H154.392H154.392H154.392H154.392H154.392H154.392H154.392H154.392H154.392H154.392H154.392H154.392H154.392H154.392H154.392H154.392H154.392H154.392H154.392H154.392H154.392H154.392H154.392H154.392H154.392H154.392H154.392H154.392H154.392H154.392H154.392H154.392H154.392H154.392H154.392H154.392H154.392H154.392H154.392H154.392H154.392H154.392H154.392H154.392H154.392H154.392H154.392H154.392H154.392H154.392H154.918C155.015 9.63142 155.1 9.5546 155.1 9.45221C155.1 9.34983 155.015 9.27301 154.918 9.27301H154.392H154.392H154.392H154.392H154.392H154.392H154.392H154.392H154.392H154.392H154.392H154.392H154.392H154.392H154.392H154.392H154.392H154.392H154.392H154.392H154.392H154.392H154.392H154.392H154.392H154.392H154.392H154.392H154.392H154.392H154.392H154.392H154.392H154.392H154.392H154.392H154.392H154.392H154.392H154.392H154.392H154.392H154.392H154.392H154.392H154.392H154.392H154.392H154.392H154.392H154.392H154.392H154.392H154.391H154.391H154.391H154.391H154.391H154.391H154.391H154.391H154.391H154.391H154.391H154.391H154.391H154.391H154.391H154.391H154.391H154.391H154.391H154.391H154.391H154.391H154.391H154.391H154.391H154.391H154.391H154.391H154.391H154.391H154.391H154.391H154.391H154.391H154.391H154.391H154.391H154.391H154.391H154.391H154.391H154.391H154.391H154.391H154.391H154.391H154.391H154.391H154.391H154.391H154.391H154.391H154.391H154.391H154.391H154.391H154.391H154.391H154.391H154.391H154.391H154.391H154.391H154.391H154.391H154.391H154.391H154.391H154.391H154.391H154.391H154.391H154.391H154.391H154.391H154.391H154.391H154.391H154.391H154.391H154.391H154.391H154.391H154.391H154.391H154.391H154.391H154.391H154.391H154.391H154.391H154.391H154.391H154.391H154.391H154.391H154.391H154.391H154.391H154.391H154.391H154.391H154.391H154.391H154.391H154.391H154.391H154.391H154.391H154.391H154.391H154.391H154.391H154.391H154.391H154.391H154.391H154.391C154.009 9.27301 153.648 9.41683 153.377 9.67858C153.377 9.67859 153.377 9.67859 153.377 9.67859L151.869 11.1329L151.869 11.1329L151.868 11.1336C151.868 11.1336 151.868 11.1336 151.868 11.1336C151.743 11.2539 151.538 11.2538 151.413 11.1332L149.899 9.67277Z" fill="#3D3D3D" stroke="#3D3D3D" stroke-width="0.2"/>
  <path d="M152.123 11.8187L152.123 11.8187L153.632 13.2738C153.834 13.469 154.104 13.5768 154.391 13.5768H154.392H154.918C155.015 13.5768 155.1 13.6536 155.1 13.756C155.1 13.8584 155.015 13.9352 154.918 13.9352H154.392H154.392H154.392H154.392H154.392H154.392H154.392H154.392H154.392H154.392H154.392H154.392H154.392H154.392H154.392H154.392H154.392H154.392H154.392H154.392H154.392H154.392H154.392H154.392H154.392H154.392H154.392H154.392H154.392H154.392H154.392H154.392H154.392H154.392H154.392H154.392H154.392H154.392H154.392H154.392H154.392H154.392H154.392H154.392H154.392H154.392H154.392H154.392H154.392H154.392H154.392H154.392H154.392H154.392H154.392H154.392H154.392H154.392H154.392H154.392H154.391H154.391H154.391H154.391H154.391H154.391H154.391H154.391H154.391H154.391H154.391H154.391H154.391H154.391H154.391H154.391H154.391H154.391H154.391H154.391H154.391H154.391H154.391H154.391H154.391H154.391H154.391H154.391H154.391H154.391H154.391H154.391H154.391H154.391H154.391H154.391H154.391H154.391H154.391H154.391H154.391H154.391H154.391H154.391H154.391H154.391H154.391H154.391H154.391H154.391H154.391H154.391H154.391H154.391H154.391H154.391H154.391H154.391H154.391H154.391H154.391H154.391H154.391H154.391H154.391C154.009 13.9352 153.648 13.7914 153.376 13.5297L153.376 13.5296L151.868 12.0745C151.743 11.9541 151.538 11.954 151.412 12.0745L152.123 11.8187ZM152.123 11.8187C151.856 11.5621 151.424 11.5617 151.158 11.8187L149.644 13.2791C149.644 13.2791 149.644 13.2791 149.644 13.2791C149.644 13.2791 149.644 13.2791 149.644 13.2791C149.441 13.4741 149.172 13.5821 148.884 13.5821H148.883H148.236C148.139 13.5821 148.054 13.6589 148.054 13.7613C148.054 13.8637 148.139 13.9405 148.236 13.9405H148.883H148.883H148.883H148.883H148.883H148.883H148.883H148.883H148.883H148.883H148.883H148.883H148.883H148.883H148.883H148.883H148.883H148.883H148.883H148.883H148.883H148.883H148.883H148.883H148.883H148.883H148.883H148.883H148.883H148.883H148.883H148.883H148.883H148.883H148.883H148.883H148.883H148.883H148.883H148.883H148.883H148.883H148.883H148.883H148.883H148.883H148.883H148.883H148.883H148.883H148.883H148.884H148.884H148.884H148.884H148.884H148.884H148.884H148.884H148.884H148.884H148.884H148.884H148.884H148.884H148.884H148.884H148.884H148.884H148.884H148.884H148.884H148.884H148.884H148.884H148.884H148.884H148.884H148.884H148.884H148.884H148.884H148.884H148.884H148.884H148.884H148.884H148.884H148.884H148.884H148.884H148.884H148.884H148.884H148.884H148.884H148.884H148.884H148.884H148.884H148.884H148.884H148.884H148.884H148.884H148.884H148.884H148.884H148.884H148.884H148.884H148.884H148.884H148.884H148.884H148.884H148.884H148.884H148.884H148.884H148.884H148.884H148.884H148.884H148.884H148.884H148.884H148.884H148.884H148.884H148.884H148.884H148.884H148.884H148.884H148.884H148.884H148.884H148.884H148.884H148.884H148.884H148.884H148.884H148.884H148.884H148.884H148.884H148.884H148.884H148.884H148.884H148.884H148.884H148.884H148.884H148.884H148.884H148.884H148.884H148.884H148.884H148.884H148.884H148.884H148.884H148.884H148.884H148.884H148.884H148.884H148.884H148.884H148.884H148.884H148.884H148.884H148.884H148.884H148.884H148.884H148.884H148.884H148.884H148.884H148.884H148.884H148.884H148.884H148.884H148.884H148.884H148.884H148.884H148.884H148.884H148.884H148.884H148.884H148.884H148.884H148.884H148.884H148.884H148.884C149.266 13.9405 149.627 13.7967 149.898 13.5349L151.412 12.0746L152.123 11.8187Z" fill="#3D3D3D" stroke="#3D3D3D" stroke-width="0.2"/>
  <path d="M136.459 14.6939C136.136 14.6949 135.826 14.5717 135.599 14.3515L134.356 13.1526C134.265 13.0683 134.121 13.0683 134.03 13.1526L132.783 14.3548C132.555 14.5755 132.246 14.699 131.923 14.6982H131.68L133.254 16.2166C133.746 16.6898 134.542 16.6898 135.033 16.2166L136.611 14.6949L136.459 14.6939Z" fill="#32BCAD"/>
  <path d="M131.923 10.4571C132.246 10.4563 132.556 10.5798 132.783 10.8005L134.03 12.003C134.12 12.0898 134.266 12.0898 134.356 12.003L135.599 10.805C135.826 10.5841 136.136 10.4603 136.459 10.4614H136.608L135.031 8.93999C134.54 8.46601 133.743 8.46601 133.252 8.93973L133.252 8.93999L131.68 10.4571H131.923Z" fill="#32BCAD"/>
  <path d="M137.913 11.7208L136.96 10.8014C136.938 10.8098 136.915 10.8143 136.892 10.8146H136.459C136.233 10.8151 136.017 10.9016 135.857 11.055L134.615 12.2522C134.382 12.4764 134.005 12.4764 133.772 12.2522L132.525 11.0504C132.365 10.8968 132.149 10.8103 131.923 10.8098H131.391C131.369 10.8093 131.348 10.8052 131.327 10.7974L130.368 11.7208C129.877 12.195 129.877 12.9625 130.368 13.4367L131.325 14.3599C131.346 14.352 131.367 14.3477 131.389 14.3475H131.923C132.149 14.3467 132.365 14.2604 132.525 14.1068L133.772 12.9046C133.997 12.6874 134.39 12.6874 134.615 12.9046L135.857 14.1023C136.017 14.2556 136.233 14.3422 136.459 14.3427H136.892C136.915 14.3429 136.938 14.3472 136.96 14.3558L137.913 13.4365C138.404 12.9628 138.404 12.1947 137.913 11.7208C137.913 11.7208 137.913 11.7208 137.913 11.7208Z" fill="#32BCAD"/>
</svg>