<svg xmlns="http://www.w3.org/2000/svg" width="30" height="30" viewBox="0 0 30 30" fill="none">
  <path d="M20.1648 21.2403L16.9079 24.4987L16.9076 24.4989C16.3955 25.012 15.7016 25.2999 14.9784 25.2999C14.2553 25.2999 13.5614 25.012 13.0492 24.4989L13.049 24.4987L9.82734 21.2757C10.2635 21.2076 10.6154 21.0997 10.9063 20.9671C11.4069 20.739 11.6928 20.4518 11.8817 20.2622C11.8869 20.2569 11.892 20.2517 11.8971 20.2466L15.1292 17.0045L18.3505 20.2358C18.9216 20.8088 19.5246 21.1031 20.1648 21.2403ZM9.85601 8.72784L13.0813 5.50123L13.0815 5.50097C13.5937 4.98787 14.2876 4.69995 15.0107 4.69995C15.7339 4.69995 16.4278 4.98787 16.9399 5.50097L16.9402 5.50123L20.193 8.75545C19.5348 8.89062 18.9022 9.18769 18.3254 9.78921L15.1292 12.9954L11.8971 9.75326C11.8894 9.74551 11.8815 9.7375 11.8733 9.72925C11.7009 9.55576 11.4221 9.27504 10.9352 9.04711C10.6454 8.91145 10.2931 8.79903 9.85601 8.72784Z" stroke="#CF215B"/>
  <path d="M24.4896 13.1843L24.4911 13.1857C25.0096 13.6727 25.2966 14.3269 25.2999 15.0034C25.3033 15.6795 25.0231 16.3356 24.5102 16.8268C24.5099 16.8271 24.5096 16.8274 24.5093 16.8277L22.2261 18.9898H21.0647C20.5954 18.9898 20.1574 18.8126 19.8419 18.5152L16.5915 15.4507C16.3727 15.2444 16.1177 15.0959 15.8477 15.0032C16.1137 14.9103 16.3648 14.763 16.5807 14.5595L19.8203 11.5052L19.8204 11.5053L19.8297 11.4961C20.1273 11.2003 20.5799 11.0204 21.0431 11.0204H22.2045L24.4896 13.1843ZM13.6984 14.5657C13.9147 14.7623 14.1689 14.9104 14.443 15.0044C14.1742 15.0971 13.9204 15.2453 13.7025 15.4507L10.4438 18.523C10.1139 18.825 9.67356 19 9.2185 19H7.81946L5.49117 16.7953L5.49061 16.7948C4.98053 16.3133 4.69995 15.6671 4.69995 15C4.69995 14.3329 4.98053 13.6867 5.49061 13.2052L5.49117 13.2047L7.81946 11H9.2077C9.67683 11 10.1147 11.1771 10.4302 11.4743C10.4303 11.4744 10.4304 11.4746 10.4305 11.4747L13.6911 14.5589L13.6911 14.559L13.6984 14.5657Z" stroke="#CF215B"/>
</svg>