<svg xmlns="http://www.w3.org/2000/svg" width="30" height="30" viewBox="0 0 30 30" fill="none">
  <path d="M26.1138 12.1335C26.4696 12.0611 26.7895 11.8681 27.0193 11.587C27.2491 11.306 27.3747 10.9542 27.375 10.5911V7.79998C27.375 7.38226 27.209 6.98165 26.9137 6.68628C26.6183 6.39091 26.2177 6.22498 25.8 6.22498H4.19997C3.78225 6.22498 3.38165 6.39091 3.08628 6.68628C2.79091 6.98165 2.62497 7.38226 2.62497 7.79998V10.5911C2.62521 10.9542 2.75086 11.306 2.98067 11.587C3.21048 11.8681 3.53033 12.0611 3.88609 12.1335C4.54975 12.2655 5.1471 12.6236 5.57635 13.1467C6.00561 13.6698 6.24022 14.3256 6.24022 15.0022C6.24022 15.6789 6.00561 16.3346 5.57635 16.8577C5.1471 17.3808 4.54975 17.7389 3.88609 17.871C3.53108 17.9432 3.21181 18.1355 2.98209 18.4157C2.75237 18.6958 2.62624 19.0466 2.62497 19.4089V22.2C2.62497 22.6177 2.79091 23.0183 3.08628 23.3137C3.38165 23.609 3.78225 23.775 4.19997 23.775H25.8C26.2177 23.775 26.6183 23.609 26.9137 23.3137C27.209 23.0183 27.375 22.6177 27.375 22.2V19.4089C27.3747 19.0458 27.2491 18.694 27.0193 18.4129C26.7895 18.1319 26.4696 17.9388 26.1138 17.8665C25.4502 17.7344 24.8528 17.3763 24.4236 16.8532C23.9943 16.3301 23.7597 15.6744 23.7597 14.9977C23.7597 14.3211 23.9943 13.6653 24.4236 13.1422C24.8528 12.6191 25.4502 12.261 26.1138 12.129V12.1335ZM3.97497 22.2V19.4089C3.97516 19.3573 3.99303 19.3074 4.02559 19.2675C4.05815 19.2276 4.10342 19.2 4.15384 19.1895C5.12024 18.9932 5.98908 18.4689 6.61315 17.7054C7.23721 16.9419 7.57813 15.9861 7.57813 15C7.57813 14.0139 7.23721 13.0581 6.61315 12.2945C5.98908 11.531 5.12024 11.0067 4.15384 10.8105C4.10246 10.7997 4.05646 10.7714 4.02379 10.7303C3.99113 10.6892 3.97386 10.638 3.97497 10.5855V7.79998C3.97497 7.7403 3.99867 7.68307 4.04087 7.64088C4.08307 7.59868 4.1403 7.57498 4.19997 7.57498H10.725V22.425H4.19997C4.1403 22.425 4.08307 22.4013 4.04087 22.3591C3.99867 22.3169 3.97497 22.2596 3.97497 22.2ZM25.8461 19.1895C25.8965 19.2 25.9418 19.2276 25.9743 19.2675C26.0069 19.3074 26.0248 19.3573 26.025 19.4089V22.2C26.025 22.2596 26.0013 22.3169 25.9591 22.3591C25.9169 22.4013 25.8596 22.425 25.8 22.425H12.075V7.57498H25.8C25.8596 7.57498 25.9169 7.59868 25.9591 7.64088C26.0013 7.68307 26.025 7.7403 26.025 7.79998V10.5911C26.0261 10.6436 26.0088 10.6948 25.9761 10.7359C25.9435 10.777 25.8975 10.8054 25.8461 10.8161C24.8797 11.0123 24.0109 11.5366 23.3868 12.3002C22.7627 13.0637 22.4218 14.0195 22.4218 15.0056C22.4218 15.9917 22.7627 16.9475 23.3868 17.711C24.0109 18.4746 24.8797 18.9989 25.8461 19.1951V19.1895Z" fill="#CF215B"/>
</svg>