<svg xmlns="http://www.w3.org/2000/svg" width="30" height="30" viewBox="0 0 30 30" fill="none">
  <path d="M28.2266 13.8503L26.6516 9.91275C26.5356 9.61985 26.334 9.36872 26.0731 9.19211C25.8122 9.01551 25.5042 8.92164 25.1891 8.92275H21.075V7.8C21.075 7.62098 21.0039 7.44929 20.8773 7.3227C20.7507 7.19612 20.579 7.125 20.4 7.125H3.30001C2.88229 7.125 2.48168 7.29094 2.18631 7.58631C1.89094 7.88168 1.72501 8.28228 1.72501 8.7V21.3C1.72501 21.7177 1.89094 22.1183 2.18631 22.4137C2.48168 22.7091 2.88229 22.875 3.30001 22.875H5.39251C5.54743 23.6379 5.96135 24.3239 6.56413 24.8166C7.16691 25.3092 7.92149 25.5784 8.70001 25.5784C9.47852 25.5784 10.2331 25.3092 10.8359 24.8166C11.4387 24.3239 11.8526 23.6379 12.0075 22.875H17.9925C18.1474 23.6379 18.5613 24.3239 19.1641 24.8166C19.7669 25.3092 20.5215 25.5784 21.3 25.5784C22.0785 25.5784 22.8331 25.3092 23.4359 24.8166C24.0387 24.3239 24.4526 23.6379 24.6075 22.875H26.7C27.1177 22.875 27.5183 22.7091 27.8137 22.4137C28.1091 22.1183 28.275 21.7177 28.275 21.3V14.1C28.2749 14.0144 28.2584 13.9297 28.2266 13.8503ZM21.075 10.275H25.1903C25.2353 10.275 25.2794 10.2884 25.3167 10.3137C25.354 10.339 25.3828 10.3749 25.3995 10.4168L26.6033 13.425H21.075V10.275ZM3.07501 8.7C3.07501 8.64033 3.09871 8.5831 3.14091 8.5409C3.1831 8.49871 3.24033 8.475 3.30001 8.475H19.725V16.125H3.07501V8.7ZM8.70001 24.225C8.2995 24.225 7.90799 24.1062 7.57498 23.8837C7.24197 23.6612 6.98242 23.345 6.82915 22.9749C6.67588 22.6049 6.63578 22.1978 6.71392 21.8049C6.79205 21.4121 6.98491 21.0513 7.26812 20.7681C7.55132 20.4849 7.91214 20.292 8.30495 20.2139C8.69776 20.1358 9.10492 20.1759 9.47494 20.3291C9.84496 20.4824 10.1612 20.742 10.3837 21.075C10.6062 21.408 10.725 21.7995 10.725 22.2C10.725 22.7371 10.5117 23.2521 10.1319 23.6319C9.75214 24.0117 9.23707 24.225 8.70001 24.225ZM17.9925 21.525H12.0075C11.8526 20.7621 11.4387 20.0761 10.8359 19.5834C10.2331 19.0908 9.47852 18.8216 8.70001 18.8216C7.92149 18.8216 7.16691 19.0908 6.56413 19.5834C5.96135 20.0761 5.54743 20.7621 5.39251 21.525H3.30001C3.24033 21.525 3.1831 21.5013 3.14091 21.4591C3.09871 21.4169 3.07501 21.3597 3.07501 21.3V17.475H19.725V19.2165C19.284 19.4499 18.9 19.7778 18.6005 20.1769C18.301 20.576 18.0934 21.0363 17.9925 21.525ZM21.3 24.225C20.8995 24.225 20.508 24.1062 20.175 23.8837C19.842 23.6612 19.5824 23.345 19.4291 22.9749C19.2759 22.6049 19.2358 22.1978 19.3139 21.8049C19.3921 21.4121 19.5849 21.0513 19.8681 20.7681C20.1513 20.4849 20.5121 20.292 20.9049 20.2139C21.2978 20.1358 21.7049 20.1759 22.0749 20.3291C22.445 20.4824 22.7612 20.742 22.9837 21.075C23.2062 21.408 23.325 21.7995 23.325 22.2C23.325 22.7371 23.1117 23.2521 22.7319 23.6319C22.3521 24.0117 21.8371 24.225 21.3 24.225ZM26.925 21.3C26.925 21.3597 26.9013 21.4169 26.8591 21.4591C26.8169 21.5013 26.7597 21.525 26.7 21.525H24.6075C24.4509 20.7632 24.0364 20.0786 23.4339 19.5868C22.8314 19.0949 22.0778 18.8259 21.3 18.825C21.2246 18.825 21.1493 18.825 21.075 18.8329V14.775H26.925V21.3Z" fill="#CF215B"/>
</svg>