<svg xmlns="http://www.w3.org/2000/svg" width="24" height="24" viewBox="0 0 24 24" fill="none">
  <path d="M17.5013 13.7466L14.5013 12.2466C14.4126 12.2025 14.314 12.1826 14.2152 12.1888C14.1165 12.1951 14.0211 12.2273 13.9387 12.2822L12.4688 13.2619C11.7246 12.8809 11.1191 12.2754 10.7381 11.5312L11.7188 10.0622C11.7736 9.97985 11.8058 9.88448 11.8121 9.78572C11.8184 9.68696 11.7984 9.58829 11.7544 9.49969L10.2544 6.49969C10.2077 6.40583 10.1358 6.32687 10.0467 6.27171C9.95757 6.21655 9.85481 6.18738 9.75 6.1875C8.80517 6.1875 7.89903 6.56283 7.23093 7.23093C6.56283 7.89903 6.1875 8.80517 6.1875 9.75C6.18998 11.8875 7.04022 13.9368 8.55169 15.4483C10.0632 16.9598 12.1125 17.81 14.25 17.8125C15.1948 17.8125 16.101 17.4372 16.7691 16.7691C17.4372 16.101 17.8125 15.1948 17.8125 14.25C17.8125 14.1454 17.7834 14.043 17.7284 13.954C17.6735 13.8651 17.5948 13.7933 17.5013 13.7466ZM14.25 16.6875C12.4107 16.6853 10.6475 15.9536 9.34691 14.6531C8.04636 13.3525 7.31473 11.5893 7.3125 9.75C7.31255 9.16172 7.52536 8.5933 7.91166 8.14962C8.29797 7.70594 8.83169 7.41694 9.41438 7.33594L10.6013 9.70969L9.62719 11.1703C9.57601 11.2473 9.54461 11.3358 9.53578 11.4279C9.52695 11.5199 9.54096 11.6128 9.57656 11.6981C10.0938 12.9279 11.0721 13.9062 12.3019 14.4234C12.3872 14.459 12.4801 14.473 12.5721 14.4642C12.6642 14.4554 12.7527 14.424 12.8297 14.3728L14.2903 13.3988L16.6641 14.5856C16.5831 15.1683 16.2941 15.702 15.8504 16.0883C15.4067 16.4746 14.8383 16.6874 14.25 16.6875ZM12 2.4375C10.3423 2.43715 8.71298 2.86774 7.2719 3.68703C5.83081 4.50632 4.62746 5.68616 3.77989 7.11081C2.93233 8.53545 2.46967 10.156 2.43732 11.8133C2.40496 13.4707 2.80401 15.108 3.59531 16.5647L2.50594 19.8337C2.42882 20.065 2.41762 20.3132 2.47362 20.5504C2.52961 20.7877 2.65057 21.0047 2.82295 21.1771C2.99533 21.3494 3.21231 21.4704 3.44957 21.5264C3.68683 21.5824 3.93499 21.5712 4.16625 21.4941L7.43531 20.4047C8.71498 21.0991 10.1363 21.4922 11.591 21.5539C13.0456 21.6156 14.4952 21.3444 15.8291 20.7608C17.1629 20.1772 18.346 19.2968 19.2879 18.1866C20.2299 17.0764 20.9059 15.7657 21.2644 14.3546C21.6229 12.9435 21.6544 11.4691 21.3566 10.044C21.0588 8.61879 20.4395 7.28044 19.5459 6.13097C18.6523 4.98149 17.508 4.05125 16.2003 3.41117C14.8926 2.77108 13.456 2.43806 12 2.4375ZM12 20.4375C10.5168 20.4379 9.05974 20.0472 7.77563 19.305C7.69002 19.2558 7.59312 19.2296 7.49438 19.2291C7.43385 19.2294 7.37375 19.2392 7.31625 19.2581L3.81094 20.4263C3.7779 20.4373 3.74245 20.4389 3.70856 20.4309C3.67466 20.4229 3.64366 20.4056 3.61904 20.381C3.59441 20.3563 3.57713 20.3253 3.56913 20.2914C3.56113 20.2576 3.56273 20.2221 3.57375 20.1891L4.74188 16.6875C4.76715 16.6118 4.77604 16.5317 4.76796 16.4523C4.75988 16.3729 4.73501 16.2962 4.695 16.2272C3.7643 14.6195 3.3902 12.7495 3.63074 10.9075C3.87128 9.06544 4.71301 7.35428 6.02534 6.03945C7.33767 4.72463 9.04724 3.87965 10.8888 3.63562C12.7304 3.39159 14.601 3.76213 16.2105 4.68978C17.82 5.61742 19.0784 7.05031 19.7904 8.76612C20.5024 10.4819 20.6282 12.3848 20.1484 14.1794C19.6685 15.9741 18.6098 17.5602 17.1365 18.6917C15.6632 19.8232 13.8577 20.4369 12 20.4375Z" fill="#4F4F4F"/>
</svg>